<svg width="880" height="24" viewBox="0 0 880 24" fill="none" xmlns="http://www.w3.org/2000/svg">
<path d="M1.27841 18V6.36364H5.42614C6.33144 6.36364 7.08144 6.52841 7.67614 6.85795C8.27083 7.1875 8.71591 7.63826 9.01136 8.21023C9.30682 8.77841 9.45455 9.41856 9.45455 10.1307C9.45455 10.8466 9.30492 11.4905 9.00568 12.0625C8.71023 12.6307 8.26326 13.0814 7.66477 13.4148C7.07008 13.7443 6.32197 13.9091 5.42045 13.9091H2.56818V12.4205H5.26136C5.83333 12.4205 6.29735 12.322 6.65341 12.125C7.00947 11.9242 7.27083 11.6515 7.4375 11.3068C7.60417 10.9621 7.6875 10.5701 7.6875 10.1307C7.6875 9.69129 7.60417 9.30114 7.4375 8.96023C7.27083 8.61932 7.00758 8.35227 6.64773 8.15909C6.29167 7.96591 5.82197 7.86932 5.23864 7.86932H3.03409V18H1.27841ZM11.3764 18V9.27273H13.0185V10.6591H13.1094C13.2685 10.1894 13.5488 9.82008 13.9503 9.55114C14.3556 9.27841 14.8139 9.14205 15.3253 9.14205C15.4313 9.14205 15.5563 9.14583 15.7003 9.15341C15.848 9.16098 15.9635 9.17045 16.0469 9.18182V10.8068C15.9787 10.7879 15.8575 10.767 15.6832 10.7443C15.509 10.7178 15.3348 10.7045 15.1605 10.7045C14.759 10.7045 14.401 10.7898 14.0866 10.9602C13.776 11.1269 13.5298 11.3598 13.348 11.6591C13.1662 11.9545 13.0753 12.2917 13.0753 12.6705V18H11.3764ZM20.8807 18.1761C20.0625 18.1761 19.3485 17.9886 18.7386 17.6136C18.1288 17.2386 17.6553 16.714 17.3182 16.0398C16.9811 15.3655 16.8125 14.5777 16.8125 13.6761C16.8125 12.7708 16.9811 11.9792 17.3182 11.3011C17.6553 10.6231 18.1288 10.0966 18.7386 9.72159C19.3485 9.34659 20.0625 9.15909 20.8807 9.15909C21.6989 9.15909 22.4129 9.34659 23.0227 9.72159C23.6326 10.0966 24.1061 10.6231 24.4432 11.3011C24.7803 11.9792 24.9489 12.7708 24.9489 13.6761C24.9489 14.5777 24.7803 15.3655 24.4432 16.0398C24.1061 16.714 23.6326 17.2386 23.0227 17.6136C22.4129 17.9886 21.6989 18.1761 20.8807 18.1761ZM20.8864 16.75C21.4167 16.75 21.8561 16.6098 22.2045 16.3295C22.553 16.0492 22.8106 15.6761 22.9773 15.2102C23.1477 14.7443 23.233 14.2311 23.233 13.6705C23.233 13.1136 23.1477 12.6023 22.9773 12.1364C22.8106 11.6667 22.553 11.2898 22.2045 11.0057C21.8561 10.7216 21.4167 10.5795 20.8864 10.5795C20.3523 10.5795 19.9091 10.7216 19.5568 11.0057C19.2083 11.2898 18.9489 11.6667 18.7784 12.1364C18.6117 12.6023 18.5284 13.1136 18.5284 13.6705C18.5284 14.2311 18.6117 14.7443 18.7784 15.2102C18.9489 15.6761 19.2083 16.0492 19.5568 16.3295C19.9091 16.6098 20.3523 16.75 20.8864 16.75ZM26.8452 9.27273H28.544V18.5682C28.544 19.1515 28.438 19.6439 28.2259 20.0455C28.0175 20.447 27.7069 20.7519 27.294 20.9602C26.8849 21.1686 26.3793 21.2727 25.777 21.2727C25.7164 21.2727 25.6596 21.2727 25.6065 21.2727C25.5497 21.2727 25.491 21.2708 25.4304 21.267V19.8068C25.4834 19.8068 25.5308 19.8068 25.5724 19.8068C25.6103 19.8068 25.6539 19.8068 25.7031 19.8068C26.1046 19.8068 26.3944 19.6989 26.5724 19.483C26.7543 19.2708 26.8452 18.9621 26.8452 18.5568V9.27273ZM27.6861 7.92614C27.3906 7.92614 27.1368 7.82765 26.9247 7.63068C26.7164 7.42992 26.6122 7.19129 26.6122 6.91477C26.6122 6.63447 26.7164 6.39583 26.9247 6.19886C27.1368 5.99811 27.3906 5.89773 27.6861 5.89773C27.9815 5.89773 28.2334 5.99811 28.4418 6.19886C28.6539 6.39583 28.7599 6.63447 28.7599 6.91477C28.7599 7.19129 28.6539 7.42992 28.4418 7.63068C28.2334 7.82765 27.9815 7.92614 27.6861 7.92614ZM34.5909 18.1761C33.7311 18.1761 32.9905 17.9924 32.3693 17.625C31.7519 17.2538 31.2746 16.733 30.9375 16.0625C30.6042 15.3883 30.4375 14.5985 30.4375 13.6932C30.4375 12.7992 30.6042 12.0114 30.9375 11.3295C31.2746 10.6477 31.7443 10.1155 32.3466 9.73295C32.9527 9.35038 33.661 9.15909 34.4716 9.15909C34.964 9.15909 35.4413 9.24053 35.9034 9.40341C36.3655 9.56629 36.7803 9.82197 37.1477 10.1705C37.5152 10.5189 37.8049 10.9716 38.017 11.5284C38.2292 12.0814 38.3352 12.7538 38.3352 13.5455V14.1477H31.3977V12.875H36.6705C36.6705 12.428 36.5795 12.0322 36.3977 11.6875C36.2159 11.339 35.9602 11.0644 35.6307 10.8636C35.3049 10.6629 34.9223 10.5625 34.483 10.5625C34.0057 10.5625 33.589 10.6799 33.233 10.9148C32.8807 11.1458 32.608 11.4489 32.4148 11.8239C32.2254 12.1951 32.1307 12.5985 32.1307 13.0341V14.0284C32.1307 14.6117 32.233 15.108 32.4375 15.517C32.6458 15.9261 32.9356 16.2386 33.3068 16.4545C33.678 16.6667 34.1117 16.7727 34.608 16.7727C34.9299 16.7727 35.2235 16.7273 35.4886 16.6364C35.7538 16.5417 35.983 16.4015 36.1761 16.2159C36.3693 16.0303 36.517 15.8011 36.6193 15.5284L38.2273 15.8182C38.0985 16.2917 37.8674 16.7064 37.5341 17.0625C37.2045 17.4148 36.7898 17.6894 36.2898 17.8864C35.7936 18.0795 35.2273 18.1761 34.5909 18.1761ZM43.8963 18.1761C43.0516 18.1761 42.3243 17.9848 41.7145 17.6023C41.1084 17.2159 40.6425 16.6837 40.3168 16.0057C39.991 15.3277 39.8281 14.5511 39.8281 13.6761C39.8281 12.7898 39.9948 12.0076 40.3281 11.3295C40.6615 10.6477 41.1312 10.1155 41.7372 9.73295C42.3433 9.35038 43.0573 9.15909 43.8793 9.15909C44.5421 9.15909 45.133 9.2822 45.652 9.52841C46.1709 9.77083 46.5895 10.1117 46.9077 10.5511C47.2296 10.9905 47.4209 11.5038 47.4815 12.0909H45.8281C45.7372 11.6818 45.5289 11.3295 45.2031 11.0341C44.8812 10.7386 44.4493 10.5909 43.9077 10.5909C43.4342 10.5909 43.0194 10.7159 42.6634 10.9659C42.3111 11.2121 42.0365 11.5644 41.8395 12.0227C41.6425 12.4773 41.544 13.0152 41.544 13.6364C41.544 14.2727 41.6406 14.822 41.8338 15.2841C42.027 15.7462 42.2997 16.1042 42.652 16.358C43.008 16.6117 43.4266 16.7386 43.9077 16.7386C44.2296 16.7386 44.5213 16.6799 44.7827 16.5625C45.0478 16.4413 45.2694 16.2689 45.4474 16.0455C45.6293 15.822 45.7562 15.553 45.8281 15.2386H47.4815C47.4209 15.803 47.2372 16.3068 46.9304 16.75C46.6236 17.1932 46.2126 17.5417 45.6974 17.7955C45.1861 18.0492 44.5857 18.1761 43.8963 18.1761ZM53.3722 9.27273V10.6364H48.6051V9.27273H53.3722ZM49.8835 7.18182H51.5824V15.4375C51.5824 15.767 51.6316 16.0152 51.7301 16.1818C51.8286 16.3447 51.9555 16.4564 52.1108 16.517C52.2699 16.5739 52.4422 16.6023 52.6278 16.6023C52.7642 16.6023 52.8835 16.5928 52.9858 16.5739C53.0881 16.5549 53.1676 16.5398 53.2244 16.5284L53.5312 17.9318C53.4328 17.9697 53.2926 18.0076 53.1108 18.0455C52.929 18.0871 52.7017 18.1098 52.429 18.1136C51.982 18.1212 51.5653 18.0417 51.179 17.875C50.7926 17.7083 50.4801 17.4508 50.2415 17.1023C50.0028 16.7538 49.8835 16.3163 49.8835 15.7898V7.18182ZM60.7756 6.36364V10.5057H59.3665V6.36364H60.7756ZM63.1065 6.36364H65.2372L68.9418 15.4091H69.0781L72.7827 6.36364H74.9134V18H73.2429V9.57955H73.1349L69.7031 17.983H68.3168L64.8849 9.57386H64.777V18H63.1065V6.36364ZM81.0057 18.1761C80.1875 18.1761 79.4735 17.9886 78.8636 17.6136C78.2538 17.2386 77.7803 16.714 77.4432 16.0398C77.1061 15.3655 76.9375 14.5777 76.9375 13.6761C76.9375 12.7708 77.1061 11.9792 77.4432 11.3011C77.7803 10.6231 78.2538 10.0966 78.8636 9.72159C79.4735 9.34659 80.1875 9.15909 81.0057 9.15909C81.8239 9.15909 82.5379 9.34659 83.1477 9.72159C83.7576 10.0966 84.2311 10.6231 84.5682 11.3011C84.9053 11.9792 85.0739 12.7708 85.0739 13.6761C85.0739 14.5777 84.9053 15.3655 84.5682 16.0398C84.2311 16.714 83.7576 17.2386 83.1477 17.6136C82.5379 17.9886 81.8239 18.1761 81.0057 18.1761ZM81.0114 16.75C81.5417 16.75 81.9811 16.6098 82.3295 16.3295C82.678 16.0492 82.9356 15.6761 83.1023 15.2102C83.2727 14.7443 83.358 14.2311 83.358 13.6705C83.358 13.1136 83.2727 12.6023 83.1023 12.1364C82.9356 11.6667 82.678 11.2898 82.3295 11.0057C81.9811 10.7216 81.5417 10.5795 81.0114 10.5795C80.4773 10.5795 80.0341 10.7216 79.6818 11.0057C79.3333 11.2898 79.0739 11.6667 78.9034 12.1364C78.7367 12.6023 78.6534 13.1136 78.6534 13.6705C78.6534 14.2311 78.7367 14.7443 78.9034 15.2102C79.0739 15.6761 79.3333 16.0492 79.6818 16.3295C80.0341 16.6098 80.4773 16.75 81.0114 16.75ZM87.1065 18V6.36364H88.8054V10.6875H88.9077C89.0062 10.5057 89.1482 10.2955 89.3338 10.0568C89.5194 9.81818 89.777 9.60985 90.1065 9.43182C90.4361 9.25 90.8717 9.15909 91.4134 9.15909C92.1179 9.15909 92.7467 9.33712 93.2997 9.69318C93.8527 10.0492 94.2865 10.5625 94.6009 11.233C94.919 11.9034 95.0781 12.7102 95.0781 13.6534C95.0781 14.5966 94.9209 15.4053 94.6065 16.0795C94.2921 16.75 93.8603 17.267 93.3111 17.6307C92.7618 17.9905 92.1349 18.1705 91.4304 18.1705C90.9001 18.1705 90.4664 18.0814 90.1293 17.9034C89.7959 17.7254 89.5346 17.517 89.3452 17.2784C89.1558 17.0398 89.0099 16.8277 88.9077 16.642H88.7656V18H87.1065ZM88.7713 13.6364C88.7713 14.25 88.8603 14.7879 89.0384 15.25C89.2164 15.7121 89.474 16.0739 89.8111 16.3352C90.1482 16.5928 90.5611 16.7216 91.0497 16.7216C91.5573 16.7216 91.9815 16.5871 92.3224 16.3182C92.6634 16.0455 92.9209 15.6761 93.0952 15.2102C93.2732 14.7443 93.3622 14.2197 93.3622 13.6364C93.3622 13.0606 93.2751 12.5436 93.1009 12.0852C92.9304 11.6269 92.6728 11.2652 92.3281 11C91.9872 10.7348 91.5611 10.6023 91.0497 10.6023C90.5573 10.6023 90.1406 10.7292 89.7997 10.983C89.4626 11.2367 89.2069 11.5909 89.0327 12.0455C88.8584 12.5 88.7713 13.0303 88.7713 13.6364ZM96.9858 18V9.27273H98.6847V18H96.9858ZM97.8438 7.92614C97.5483 7.92614 97.2945 7.82765 97.0824 7.63068C96.8741 7.42992 96.7699 7.19129 96.7699 6.91477C96.7699 6.63447 96.8741 6.39583 97.0824 6.19886C97.2945 5.99811 97.5483 5.89773 97.8438 5.89773C98.1392 5.89773 98.3911 5.99811 98.5994 6.19886C98.8116 6.39583 98.9176 6.63447 98.9176 6.91477C98.9176 7.19129 98.8116 7.42992 98.5994 7.63068C98.3911 7.82765 98.1392 7.92614 97.8438 7.92614ZM102.669 6.36364V18H100.97V6.36364H102.669ZM108.716 18.1761C107.856 18.1761 107.116 17.9924 106.494 17.625C105.877 17.2538 105.4 16.733 105.062 16.0625C104.729 15.3883 104.562 14.5985 104.562 13.6932C104.562 12.7992 104.729 12.0114 105.062 11.3295C105.4 10.6477 105.869 10.1155 106.472 9.73295C107.078 9.35038 107.786 9.15909 108.597 9.15909C109.089 9.15909 109.566 9.24053 110.028 9.40341C110.491 9.56629 110.905 9.82197 111.273 10.1705C111.64 10.5189 111.93 10.9716 112.142 11.5284C112.354 12.0814 112.46 12.7538 112.46 13.5455V14.1477H105.523V12.875H110.795C110.795 12.428 110.705 12.0322 110.523 11.6875C110.341 11.339 110.085 11.0644 109.756 10.8636C109.43 10.6629 109.047 10.5625 108.608 10.5625C108.131 10.5625 107.714 10.6799 107.358 10.9148C107.006 11.1458 106.733 11.4489 106.54 11.8239C106.35 12.1951 106.256 12.5985 106.256 13.0341V14.0284C106.256 14.6117 106.358 15.108 106.562 15.517C106.771 15.9261 107.061 16.2386 107.432 16.4545C107.803 16.6667 108.237 16.7727 108.733 16.7727C109.055 16.7727 109.348 16.7273 109.614 16.6364C109.879 16.5417 110.108 16.4015 110.301 16.2159C110.494 16.0303 110.642 15.8011 110.744 15.5284L112.352 15.8182C112.223 16.2917 111.992 16.7064 111.659 17.0625C111.33 17.4148 110.915 17.6894 110.415 17.8864C109.919 18.0795 109.352 18.1761 108.716 18.1761ZM119.699 18H117.835L122.023 6.36364H124.051L128.239 18H126.375L123.085 8.47727H122.994L119.699 18ZM120.011 13.4432H126.057V14.9205H120.011V13.4432ZM129.783 21.2727V9.27273H131.442V10.6875H131.584C131.682 10.5057 131.824 10.2955 132.01 10.0568C132.196 9.81818 132.453 9.60985 132.783 9.43182C133.112 9.25 133.548 9.15909 134.089 9.15909C134.794 9.15909 135.423 9.33712 135.976 9.69318C136.529 10.0492 136.963 10.5625 137.277 11.233C137.595 11.9034 137.754 12.7102 137.754 13.6534C137.754 14.5966 137.597 15.4053 137.283 16.0795C136.968 16.75 136.536 17.267 135.987 17.6307C135.438 17.9905 134.811 18.1705 134.107 18.1705C133.576 18.1705 133.143 18.0814 132.805 17.9034C132.472 17.7254 132.211 17.517 132.021 17.2784C131.832 17.0398 131.686 16.8277 131.584 16.642H131.482V21.2727H129.783ZM131.447 13.6364C131.447 14.25 131.536 14.7879 131.714 15.25C131.893 15.7121 132.15 16.0739 132.487 16.3352C132.824 16.5928 133.237 16.7216 133.726 16.7216C134.233 16.7216 134.658 16.5871 134.999 16.3182C135.339 16.0455 135.597 15.6761 135.771 15.2102C135.949 14.7443 136.038 14.2197 136.038 13.6364C136.038 13.0606 135.951 12.5436 135.777 12.0852C135.607 11.6269 135.349 11.2652 135.004 11C134.663 10.7348 134.237 10.6023 133.726 10.6023C133.233 10.6023 132.817 10.7292 132.476 10.983C132.139 11.2367 131.883 11.5909 131.709 12.0455C131.535 12.5 131.447 13.0303 131.447 13.6364ZM139.658 21.2727V9.27273H141.317V10.6875H141.459C141.557 10.5057 141.699 10.2955 141.885 10.0568C142.071 9.81818 142.328 9.60985 142.658 9.43182C142.987 9.25 143.423 9.15909 143.964 9.15909C144.669 9.15909 145.298 9.33712 145.851 9.69318C146.404 10.0492 146.838 10.5625 147.152 11.233C147.47 11.9034 147.629 12.7102 147.629 13.6534C147.629 14.5966 147.472 15.4053 147.158 16.0795C146.843 16.75 146.411 17.267 145.862 17.6307C145.313 17.9905 144.686 18.1705 143.982 18.1705C143.451 18.1705 143.018 18.0814 142.68 17.9034C142.347 17.7254 142.086 17.517 141.896 17.2784C141.707 17.0398 141.561 16.8277 141.459 16.642H141.357V21.2727H139.658ZM141.322 13.6364C141.322 14.25 141.411 14.7879 141.589 15.25C141.768 15.7121 142.025 16.0739 142.362 16.3352C142.699 16.5928 143.112 16.7216 143.601 16.7216C144.108 16.7216 144.533 16.5871 144.874 16.3182C145.214 16.0455 145.472 15.6761 145.646 15.2102C145.824 14.7443 145.913 14.2197 145.913 13.6364C145.913 13.0606 145.826 12.5436 145.652 12.0852C145.482 11.6269 145.224 11.2652 144.879 11C144.538 10.7348 144.112 10.6023 143.601 10.6023C143.108 10.6023 142.692 10.7292 142.351 10.983C142.014 11.2367 141.758 11.5909 141.584 12.0455C141.41 12.5 141.322 13.0303 141.322 13.6364ZM151.232 6.36364V18H149.533V6.36364H151.232ZM153.517 18V9.27273H155.216V18H153.517ZM154.375 7.92614C154.08 7.92614 153.826 7.82765 153.614 7.63068C153.405 7.42992 153.301 7.19129 153.301 6.91477C153.301 6.63447 153.405 6.39583 153.614 6.19886C153.826 5.99811 154.08 5.89773 154.375 5.89773C154.67 5.89773 154.922 5.99811 155.131 6.19886C155.343 6.39583 155.449 6.63447 155.449 6.91477C155.449 7.19129 155.343 7.42992 155.131 7.63068C154.922 7.82765 154.67 7.92614 154.375 7.92614ZM161.178 18.1761C160.333 18.1761 159.606 17.9848 158.996 17.6023C158.39 17.2159 157.924 16.6837 157.598 16.0057C157.272 15.3277 157.109 14.5511 157.109 13.6761C157.109 12.7898 157.276 12.0076 157.609 11.3295C157.943 10.6477 158.412 10.1155 159.018 9.73295C159.625 9.35038 160.339 9.15909 161.161 9.15909C161.823 9.15909 162.414 9.2822 162.933 9.52841C163.452 9.77083 163.871 10.1117 164.189 10.5511C164.511 10.9905 164.702 11.5038 164.763 12.0909H163.109C163.018 11.6818 162.81 11.3295 162.484 11.0341C162.162 10.7386 161.731 10.5909 161.189 10.5909C160.715 10.5909 160.301 10.7159 159.945 10.9659C159.592 11.2121 159.318 11.5644 159.121 12.0227C158.924 12.4773 158.825 13.0152 158.825 13.6364C158.825 14.2727 158.922 14.822 159.115 15.2841C159.308 15.7462 159.581 16.1042 159.933 16.358C160.289 16.6117 160.708 16.7386 161.189 16.7386C161.511 16.7386 161.803 16.6799 162.064 16.5625C162.329 16.4413 162.551 16.2689 162.729 16.0455C162.911 15.822 163.037 15.553 163.109 15.2386H164.763C164.702 15.803 164.518 16.3068 164.212 16.75C163.905 17.1932 163.494 17.5417 162.979 17.7955C162.467 18.0492 161.867 18.1761 161.178 18.1761ZM169.119 18.1932C168.566 18.1932 168.066 18.0909 167.619 17.8864C167.172 17.678 166.818 17.3769 166.557 16.983C166.299 16.589 166.17 16.1061 166.17 15.5341C166.17 15.0417 166.265 14.6364 166.455 14.3182C166.644 14 166.9 13.7481 167.222 13.5625C167.544 13.3769 167.903 13.2367 168.301 13.142C168.699 13.0473 169.104 12.9754 169.517 12.9261C170.04 12.8655 170.464 12.8163 170.79 12.7784C171.116 12.7367 171.352 12.6705 171.5 12.5795C171.648 12.4886 171.722 12.3409 171.722 12.1364V12.0966C171.722 11.6004 171.581 11.2159 171.301 10.9432C171.025 10.6705 170.612 10.5341 170.062 10.5341C169.491 10.5341 169.04 10.661 168.71 10.9148C168.384 11.1648 168.159 11.4432 168.034 11.75L166.438 11.3864C166.627 10.8561 166.903 10.428 167.267 10.1023C167.634 9.77273 168.057 9.53409 168.534 9.38636C169.011 9.23485 169.513 9.15909 170.04 9.15909C170.388 9.15909 170.758 9.20076 171.148 9.28409C171.542 9.36364 171.909 9.51136 172.25 9.72727C172.595 9.94318 172.877 10.2519 173.097 10.6534C173.316 11.0511 173.426 11.5682 173.426 12.2045V18H171.767V16.8068H171.699C171.589 17.0265 171.424 17.2424 171.205 17.4545C170.985 17.6667 170.703 17.8428 170.358 17.983C170.013 18.1231 169.6 18.1932 169.119 18.1932ZM169.489 16.8295C169.958 16.8295 170.36 16.7367 170.693 16.5511C171.03 16.3655 171.286 16.1231 171.46 15.8239C171.638 15.5208 171.727 15.197 171.727 14.8523V13.7273C171.667 13.7879 171.549 13.8447 171.375 13.8977C171.205 13.947 171.009 13.9905 170.79 14.0284C170.57 14.0625 170.356 14.0947 170.148 14.125C169.939 14.1515 169.765 14.1742 169.625 14.1932C169.295 14.2348 168.994 14.3049 168.722 14.4034C168.453 14.5019 168.237 14.6439 168.074 14.8295C167.915 15.0114 167.835 15.2538 167.835 15.5568C167.835 15.9773 167.991 16.2955 168.301 16.5114C168.612 16.7235 169.008 16.8295 169.489 16.8295ZM179.763 9.27273V10.6364H174.996V9.27273H179.763ZM176.274 7.18182H177.973V15.4375C177.973 15.767 178.022 16.0152 178.121 16.1818C178.219 16.3447 178.346 16.4564 178.501 16.517C178.661 16.5739 178.833 16.6023 179.018 16.6023C179.155 16.6023 179.274 16.5928 179.376 16.5739C179.479 16.5549 179.558 16.5398 179.615 16.5284L179.922 17.9318C179.823 17.9697 179.683 18.0076 179.501 18.0455C179.32 18.0871 179.092 18.1098 178.82 18.1136C178.373 18.1212 177.956 18.0417 177.57 17.875C177.183 17.7083 176.871 17.4508 176.632 17.1023C176.393 16.7538 176.274 16.3163 176.274 15.7898V7.18182ZM181.642 18V9.27273H183.341V18H181.642ZM182.5 7.92614C182.205 7.92614 181.951 7.82765 181.739 7.63068C181.53 7.42992 181.426 7.19129 181.426 6.91477C181.426 6.63447 181.53 6.39583 181.739 6.19886C181.951 5.99811 182.205 5.89773 182.5 5.89773C182.795 5.89773 183.047 5.99811 183.256 6.19886C183.468 6.39583 183.574 6.63447 183.574 6.91477C183.574 7.19129 183.468 7.42992 183.256 7.63068C183.047 7.82765 182.795 7.92614 182.5 7.92614ZM189.303 18.1761C188.484 18.1761 187.77 17.9886 187.161 17.6136C186.551 17.2386 186.077 16.714 185.74 16.0398C185.403 15.3655 185.234 14.5777 185.234 13.6761C185.234 12.7708 185.403 11.9792 185.74 11.3011C186.077 10.6231 186.551 10.0966 187.161 9.72159C187.77 9.34659 188.484 9.15909 189.303 9.15909C190.121 9.15909 190.835 9.34659 191.445 9.72159C192.054 10.0966 192.528 10.6231 192.865 11.3011C193.202 11.9792 193.371 12.7708 193.371 13.6761C193.371 14.5777 193.202 15.3655 192.865 16.0398C192.528 16.714 192.054 17.2386 191.445 17.6136C190.835 17.9886 190.121 18.1761 189.303 18.1761ZM189.308 16.75C189.839 16.75 190.278 16.6098 190.626 16.3295C190.975 16.0492 191.232 15.6761 191.399 15.2102C191.57 14.7443 191.655 14.2311 191.655 13.6705C191.655 13.1136 191.57 12.6023 191.399 12.1364C191.232 11.6667 190.975 11.2898 190.626 11.0057C190.278 10.7216 189.839 10.5795 189.308 10.5795C188.774 10.5795 188.331 10.7216 187.979 11.0057C187.63 11.2898 187.371 11.6667 187.2 12.1364C187.034 12.6023 186.95 13.1136 186.95 13.6705C186.95 14.2311 187.034 14.7443 187.2 15.2102C187.371 15.6761 187.63 16.0492 187.979 16.3295C188.331 16.6098 188.774 16.75 189.308 16.75ZM196.966 12.8182V18H195.267V9.27273H196.898V10.6932H197.006C197.206 10.2311 197.521 9.85985 197.949 9.57955C198.381 9.29924 198.924 9.15909 199.58 9.15909C200.174 9.15909 200.695 9.28409 201.142 9.53409C201.589 9.7803 201.936 10.1477 202.182 10.6364C202.428 11.125 202.551 11.7292 202.551 12.4489V18H200.852V12.6534C200.852 12.0208 200.688 11.5265 200.358 11.1705C200.028 10.8106 199.576 10.6307 199 10.6307C198.606 10.6307 198.256 10.7159 197.949 10.8864C197.646 11.0568 197.405 11.3068 197.227 11.6364C197.053 11.9621 196.966 12.3561 196.966 12.8182ZM210.183 18H208.32L212.507 6.36364H214.536L218.723 18H216.859L213.57 8.47727H213.479L210.183 18ZM210.496 13.4432H216.541V14.9205H210.496V13.4432ZM220.267 18V9.27273H221.909V10.6591H222C222.159 10.1894 222.439 9.82008 222.841 9.55114C223.246 9.27841 223.705 9.14205 224.216 9.14205C224.322 9.14205 224.447 9.14583 224.591 9.15341C224.739 9.16098 224.854 9.17045 224.938 9.18182V10.8068C224.869 10.7879 224.748 10.767 224.574 10.7443C224.4 10.7178 224.225 10.7045 224.051 10.7045C223.65 10.7045 223.292 10.7898 222.977 10.9602C222.667 11.1269 222.42 11.3598 222.239 11.6591C222.057 11.9545 221.966 12.2917 221.966 12.6705V18H220.267ZM229.771 18.1761C228.927 18.1761 228.199 17.9848 227.589 17.6023C226.983 17.2159 226.518 16.6837 226.192 16.0057C225.866 15.3277 225.703 14.5511 225.703 13.6761C225.703 12.7898 225.87 12.0076 226.203 11.3295C226.536 10.6477 227.006 10.1155 227.612 9.73295C228.218 9.35038 228.932 9.15909 229.754 9.15909C230.417 9.15909 231.008 9.2822 231.527 9.52841C232.046 9.77083 232.464 10.1117 232.783 10.5511C233.105 10.9905 233.296 11.5038 233.357 12.0909H231.703C231.612 11.6818 231.404 11.3295 231.078 11.0341C230.756 10.7386 230.324 10.5909 229.783 10.5909C229.309 10.5909 228.894 10.7159 228.538 10.9659C228.186 11.2121 227.911 11.5644 227.714 12.0227C227.518 12.4773 227.419 13.0152 227.419 13.6364C227.419 14.2727 227.516 14.822 227.709 15.2841C227.902 15.7462 228.175 16.1042 228.527 16.358C228.883 16.6117 229.302 16.7386 229.783 16.7386C230.105 16.7386 230.396 16.6799 230.658 16.5625C230.923 16.4413 231.144 16.2689 231.322 16.0455C231.504 15.822 231.631 15.553 231.703 15.2386H233.357C233.296 15.803 233.112 16.3068 232.805 16.75C232.499 17.1932 232.088 17.5417 231.572 17.7955C231.061 18.0492 230.461 18.1761 229.771 18.1761ZM236.872 12.8182V18H235.173V6.36364H236.849V10.6932H236.957C237.162 10.2235 237.474 9.85038 237.895 9.57386C238.315 9.29735 238.865 9.15909 239.543 9.15909C240.141 9.15909 240.664 9.2822 241.111 9.52841C241.562 9.77462 241.91 10.142 242.156 10.6307C242.406 11.1155 242.531 11.7216 242.531 12.4489V18H240.832V12.6534C240.832 12.0133 240.668 11.517 240.338 11.1648C240.009 10.8087 239.55 10.6307 238.963 10.6307C238.562 10.6307 238.202 10.7159 237.884 10.8864C237.569 11.0568 237.321 11.3068 237.139 11.6364C236.961 11.9621 236.872 12.3561 236.872 12.8182ZM244.798 18V9.27273H246.497V18H244.798ZM245.656 7.92614C245.361 7.92614 245.107 7.82765 244.895 7.63068C244.687 7.42992 244.582 7.19129 244.582 6.91477C244.582 6.63447 244.687 6.39583 244.895 6.19886C245.107 5.99811 245.361 5.89773 245.656 5.89773C245.952 5.89773 246.204 5.99811 246.412 6.19886C246.624 6.39583 246.73 6.63447 246.73 6.91477C246.73 7.19129 246.624 7.42992 246.412 7.63068C246.204 7.82765 245.952 7.92614 245.656 7.92614ZM252.857 9.27273V10.6364H248.089V9.27273H252.857ZM249.368 7.18182H251.067V15.4375C251.067 15.767 251.116 16.0152 251.214 16.1818C251.313 16.3447 251.44 16.4564 251.595 16.517C251.754 16.5739 251.927 16.6023 252.112 16.6023C252.249 16.6023 252.368 16.5928 252.47 16.5739C252.572 16.5549 252.652 16.5398 252.709 16.5284L253.016 17.9318C252.917 17.9697 252.777 18.0076 252.595 18.0455C252.413 18.0871 252.186 18.1098 251.913 18.1136C251.466 18.1212 251.05 18.0417 250.663 17.875C250.277 17.7083 249.964 17.4508 249.726 17.1023C249.487 16.7538 249.368 16.3163 249.368 15.7898V7.18182ZM258.403 18.1761C257.544 18.1761 256.803 17.9924 256.182 17.625C255.564 17.2538 255.087 16.733 254.75 16.0625C254.417 15.3883 254.25 14.5985 254.25 13.6932C254.25 12.7992 254.417 12.0114 254.75 11.3295C255.087 10.6477 255.557 10.1155 256.159 9.73295C256.765 9.35038 257.473 9.15909 258.284 9.15909C258.777 9.15909 259.254 9.24053 259.716 9.40341C260.178 9.56629 260.593 9.82197 260.96 10.1705C261.328 10.5189 261.617 10.9716 261.83 11.5284C262.042 12.0814 262.148 12.7538 262.148 13.5455V14.1477H255.21V12.875H260.483C260.483 12.428 260.392 12.0322 260.21 11.6875C260.028 11.339 259.773 11.0644 259.443 10.8636C259.117 10.6629 258.735 10.5625 258.295 10.5625C257.818 10.5625 257.402 10.6799 257.045 10.9148C256.693 11.1458 256.42 11.4489 256.227 11.8239C256.038 12.1951 255.943 12.5985 255.943 13.0341V14.0284C255.943 14.6117 256.045 15.108 256.25 15.517C256.458 15.9261 256.748 16.2386 257.119 16.4545C257.491 16.6667 257.924 16.7727 258.42 16.7727C258.742 16.7727 259.036 16.7273 259.301 16.6364C259.566 16.5417 259.795 16.4015 259.989 16.2159C260.182 16.0303 260.33 15.8011 260.432 15.5284L262.04 15.8182C261.911 16.2917 261.68 16.7064 261.347 17.0625C261.017 17.4148 260.602 17.6894 260.102 17.8864C259.606 18.0795 259.04 18.1761 258.403 18.1761ZM267.709 18.1761C266.864 18.1761 266.137 17.9848 265.527 17.6023C264.921 17.2159 264.455 16.6837 264.129 16.0057C263.804 15.3277 263.641 14.5511 263.641 13.6761C263.641 12.7898 263.807 12.0076 264.141 11.3295C264.474 10.6477 264.944 10.1155 265.55 9.73295C266.156 9.35038 266.87 9.15909 267.692 9.15909C268.355 9.15909 268.946 9.2822 269.464 9.52841C269.983 9.77083 270.402 10.1117 270.72 10.5511C271.042 10.9905 271.233 11.5038 271.294 12.0909H269.641C269.55 11.6818 269.341 11.3295 269.016 11.0341C268.694 10.7386 268.262 10.5909 267.72 10.5909C267.247 10.5909 266.832 10.7159 266.476 10.9659C266.124 11.2121 265.849 11.5644 265.652 12.0227C265.455 12.4773 265.357 13.0152 265.357 13.6364C265.357 14.2727 265.453 14.822 265.646 15.2841C265.839 15.7462 266.112 16.1042 266.464 16.358C266.821 16.6117 267.239 16.7386 267.72 16.7386C268.042 16.7386 268.334 16.6799 268.595 16.5625C268.86 16.4413 269.082 16.2689 269.26 16.0455C269.442 15.822 269.569 15.553 269.641 15.2386H271.294C271.233 15.803 271.05 16.3068 270.743 16.75C270.436 17.1932 270.025 17.5417 269.51 17.7955C268.999 18.0492 268.398 18.1761 267.709 18.1761ZM277.185 9.27273V10.6364H272.418V9.27273H277.185ZM273.696 7.18182H275.395V15.4375C275.395 15.767 275.444 16.0152 275.543 16.1818C275.641 16.3447 275.768 16.4564 275.923 16.517C276.082 16.5739 276.255 16.6023 276.44 16.6023C276.577 16.6023 276.696 16.5928 276.798 16.5739C276.901 16.5549 276.98 16.5398 277.037 16.5284L277.344 17.9318C277.245 17.9697 277.105 18.0076 276.923 18.0455C276.741 18.0871 276.514 18.1098 276.241 18.1136C275.795 18.1212 275.378 18.0417 274.991 17.875C274.605 17.7083 274.293 17.4508 274.054 17.1023C273.815 16.7538 273.696 16.3163 273.696 15.7898V7.18182ZM284.592 14.3807V9.27273H286.297V18H284.626V16.4886H284.536C284.335 16.9545 284.013 17.3428 283.57 17.6534C283.13 17.9602 282.583 18.1136 281.928 18.1136C281.367 18.1136 280.871 17.9905 280.439 17.7443C280.011 17.4943 279.674 17.125 279.428 16.6364C279.185 16.1477 279.064 15.5436 279.064 14.8239V9.27273H280.763V14.6193C280.763 15.214 280.928 15.6875 281.257 16.0398C281.587 16.392 282.015 16.5682 282.541 16.5682C282.859 16.5682 283.176 16.4886 283.49 16.3295C283.808 16.1705 284.071 15.9299 284.28 15.608C284.492 15.286 284.596 14.8769 284.592 14.3807ZM288.58 18V9.27273H290.222V10.6591H290.312C290.472 10.1894 290.752 9.82008 291.153 9.55114C291.559 9.27841 292.017 9.14205 292.528 9.14205C292.634 9.14205 292.759 9.14583 292.903 9.15341C293.051 9.16098 293.167 9.17045 293.25 9.18182V10.8068C293.182 10.7879 293.061 10.767 292.886 10.7443C292.712 10.7178 292.538 10.7045 292.364 10.7045C291.962 10.7045 291.604 10.7898 291.29 10.9602C290.979 11.1269 290.733 11.3598 290.551 11.6591C290.369 11.9545 290.278 12.2917 290.278 12.6705V18H288.58ZM298.169 18.1761C297.309 18.1761 296.569 17.9924 295.947 17.625C295.33 17.2538 294.853 16.733 294.516 16.0625C294.182 15.3883 294.016 14.5985 294.016 13.6932C294.016 12.7992 294.182 12.0114 294.516 11.3295C294.853 10.6477 295.322 10.1155 295.925 9.73295C296.531 9.35038 297.239 9.15909 298.05 9.15909C298.542 9.15909 299.019 9.24053 299.482 9.40341C299.944 9.56629 300.358 9.82197 300.726 10.1705C301.093 10.5189 301.383 10.9716 301.595 11.5284C301.807 12.0814 301.913 12.7538 301.913 13.5455V14.1477H294.976V12.875H300.249C300.249 12.428 300.158 12.0322 299.976 11.6875C299.794 11.339 299.538 11.0644 299.209 10.8636C298.883 10.6629 298.5 10.5625 298.061 10.5625C297.584 10.5625 297.167 10.6799 296.811 10.9148C296.459 11.1458 296.186 11.4489 295.993 11.8239C295.804 12.1951 295.709 12.5985 295.709 13.0341V14.0284C295.709 14.6117 295.811 15.108 296.016 15.517C296.224 15.9261 296.514 16.2386 296.885 16.4545C297.256 16.6667 297.69 16.7727 298.186 16.7727C298.508 16.7727 298.802 16.7273 299.067 16.6364C299.332 16.5417 299.561 16.4015 299.754 16.2159C299.947 16.0303 300.095 15.8011 300.197 15.5284L301.805 15.8182C301.677 16.2917 301.446 16.7064 301.112 17.0625C300.783 17.4148 300.368 17.6894 299.868 17.8864C299.372 18.0795 298.805 18.1761 298.169 18.1761ZM305.088 6.36364V10.5057H303.679V6.36364H305.088ZM315.193 18.1761C314.348 18.1761 313.621 17.9848 313.011 17.6023C312.405 17.2159 311.939 16.6837 311.614 16.0057C311.288 15.3277 311.125 14.5511 311.125 13.6761C311.125 12.7898 311.292 12.0076 311.625 11.3295C311.958 10.6477 312.428 10.1155 313.034 9.73295C313.64 9.35038 314.354 9.15909 315.176 9.15909C315.839 9.15909 316.43 9.2822 316.949 9.52841C317.468 9.77083 317.886 10.1117 318.205 10.5511C318.527 10.9905 318.718 11.5038 318.778 12.0909H317.125C317.034 11.6818 316.826 11.3295 316.5 11.0341C316.178 10.7386 315.746 10.5909 315.205 10.5909C314.731 10.5909 314.316 10.7159 313.96 10.9659C313.608 11.2121 313.333 11.5644 313.136 12.0227C312.939 12.4773 312.841 13.0152 312.841 13.6364C312.841 14.2727 312.938 14.822 313.131 15.2841C313.324 15.7462 313.597 16.1042 313.949 16.358C314.305 16.6117 314.723 16.7386 315.205 16.7386C315.527 16.7386 315.818 16.6799 316.08 16.5625C316.345 16.4413 316.566 16.2689 316.744 16.0455C316.926 15.822 317.053 15.553 317.125 15.2386H318.778C318.718 15.803 318.534 16.3068 318.227 16.75C317.92 17.1932 317.509 17.5417 316.994 17.7955C316.483 18.0492 315.883 18.1761 315.193 18.1761ZM320.595 18V9.27273H322.237V10.6591H322.328C322.487 10.1894 322.768 9.82008 323.169 9.55114C323.574 9.27841 324.033 9.14205 324.544 9.14205C324.65 9.14205 324.775 9.14583 324.919 9.15341C325.067 9.16098 325.182 9.17045 325.266 9.18182V10.8068C325.197 10.7879 325.076 10.767 324.902 10.7443C324.728 10.7178 324.554 10.7045 324.379 10.7045C323.978 10.7045 323.62 10.7898 323.305 10.9602C322.995 11.1269 322.749 11.3598 322.567 11.6591C322.385 11.9545 322.294 12.2917 322.294 12.6705V18H320.595ZM330.185 18.1761C329.325 18.1761 328.584 17.9924 327.963 17.625C327.346 17.2538 326.868 16.733 326.531 16.0625C326.198 15.3883 326.031 14.5985 326.031 13.6932C326.031 12.7992 326.198 12.0114 326.531 11.3295C326.868 10.6477 327.338 10.1155 327.94 9.73295C328.546 9.35038 329.255 9.15909 330.065 9.15909C330.558 9.15909 331.035 9.24053 331.497 9.40341C331.959 9.56629 332.374 9.82197 332.741 10.1705C333.109 10.5189 333.399 10.9716 333.611 11.5284C333.823 12.0814 333.929 12.7538 333.929 13.5455V14.1477H326.991V12.875H332.264C332.264 12.428 332.173 12.0322 331.991 11.6875C331.81 11.339 331.554 11.0644 331.224 10.8636C330.899 10.6629 330.516 10.5625 330.077 10.5625C329.599 10.5625 329.183 10.6799 328.827 10.9148C328.474 11.1458 328.202 11.4489 328.009 11.8239C327.819 12.1951 327.724 12.5985 327.724 13.0341V14.0284C327.724 14.6117 327.827 15.108 328.031 15.517C328.24 15.9261 328.529 16.2386 328.901 16.4545C329.272 16.6667 329.705 16.7727 330.202 16.7727C330.524 16.7727 330.817 16.7273 331.082 16.6364C331.348 16.5417 331.577 16.4015 331.77 16.2159C331.963 16.0303 332.111 15.8011 332.213 15.5284L333.821 15.8182C333.692 16.2917 333.461 16.7064 333.128 17.0625C332.798 17.4148 332.384 17.6894 331.884 17.8864C331.387 18.0795 330.821 18.1761 330.185 18.1761ZM338.354 18.1932C337.801 18.1932 337.301 18.0909 336.854 17.8864C336.407 17.678 336.053 17.3769 335.791 16.983C335.534 16.589 335.405 16.1061 335.405 15.5341C335.405 15.0417 335.5 14.6364 335.689 14.3182C335.878 14 336.134 13.7481 336.456 13.5625C336.778 13.3769 337.138 13.2367 337.536 13.142C337.933 13.0473 338.339 12.9754 338.751 12.9261C339.274 12.8655 339.698 12.8163 340.024 12.7784C340.35 12.7367 340.587 12.6705 340.734 12.5795C340.882 12.4886 340.956 12.3409 340.956 12.1364V12.0966C340.956 11.6004 340.816 11.2159 340.536 10.9432C340.259 10.6705 339.846 10.5341 339.297 10.5341C338.725 10.5341 338.274 10.661 337.945 10.9148C337.619 11.1648 337.393 11.4432 337.268 11.75L335.672 11.3864C335.861 10.8561 336.138 10.428 336.501 10.1023C336.869 9.77273 337.291 9.53409 337.768 9.38636C338.246 9.23485 338.748 9.15909 339.274 9.15909C339.623 9.15909 339.992 9.20076 340.382 9.28409C340.776 9.36364 341.143 9.51136 341.484 9.72727C341.829 9.94318 342.111 10.2519 342.331 10.6534C342.551 11.0511 342.661 11.5682 342.661 12.2045V18H341.001V16.8068H340.933C340.823 17.0265 340.659 17.2424 340.439 17.4545C340.219 17.6667 339.937 17.8428 339.592 17.983C339.248 18.1231 338.835 18.1932 338.354 18.1932ZM338.723 16.8295C339.193 16.8295 339.594 16.7367 339.928 16.5511C340.265 16.3655 340.52 16.1231 340.695 15.8239C340.873 15.5208 340.962 15.197 340.962 14.8523V13.7273C340.901 13.7879 340.784 13.8447 340.609 13.8977C340.439 13.947 340.244 13.9905 340.024 14.0284C339.804 14.0625 339.59 14.0947 339.382 14.125C339.174 14.1515 339 14.1742 338.859 14.1932C338.53 14.2348 338.229 14.3049 337.956 14.4034C337.687 14.5019 337.471 14.6439 337.308 14.8295C337.149 15.0114 337.07 15.2538 337.07 15.5568C337.07 15.9773 337.225 16.2955 337.536 16.5114C337.846 16.7235 338.242 16.8295 338.723 16.8295ZM348.997 9.27273V10.6364H344.23V9.27273H348.997ZM345.509 7.18182H347.207V15.4375C347.207 15.767 347.257 16.0152 347.355 16.1818C347.454 16.3447 347.58 16.4564 347.736 16.517C347.895 16.5739 348.067 16.6023 348.253 16.6023C348.389 16.6023 348.509 16.5928 348.611 16.5739C348.713 16.5549 348.793 16.5398 348.849 16.5284L349.156 17.9318C349.058 17.9697 348.918 18.0076 348.736 18.0455C348.554 18.0871 348.327 18.1098 348.054 18.1136C347.607 18.1212 347.19 18.0417 346.804 17.875C346.418 17.7083 346.105 17.4508 345.866 17.1023C345.628 16.7538 345.509 16.3163 345.509 15.7898V7.18182ZM354.544 18.1761C353.684 18.1761 352.944 17.9924 352.322 17.625C351.705 17.2538 351.228 16.733 350.891 16.0625C350.557 15.3883 350.391 14.5985 350.391 13.6932C350.391 12.7992 350.557 12.0114 350.891 11.3295C351.228 10.6477 351.697 10.1155 352.3 9.73295C352.906 9.35038 353.614 9.15909 354.425 9.15909C354.917 9.15909 355.394 9.24053 355.857 9.40341C356.319 9.56629 356.733 9.82197 357.101 10.1705C357.468 10.5189 357.758 10.9716 357.97 11.5284C358.182 12.0814 358.288 12.7538 358.288 13.5455V14.1477H351.351V12.875H356.624C356.624 12.428 356.533 12.0322 356.351 11.6875C356.169 11.339 355.913 11.0644 355.584 10.8636C355.258 10.6629 354.875 10.5625 354.436 10.5625C353.959 10.5625 353.542 10.6799 353.186 10.9148C352.834 11.1458 352.561 11.4489 352.368 11.8239C352.179 12.1951 352.084 12.5985 352.084 13.0341V14.0284C352.084 14.6117 352.186 15.108 352.391 15.517C352.599 15.9261 352.889 16.2386 353.26 16.4545C353.631 16.6667 354.065 16.7727 354.561 16.7727C354.883 16.7727 355.177 16.7273 355.442 16.6364C355.707 16.5417 355.936 16.4015 356.129 16.2159C356.322 16.0303 356.47 15.8011 356.572 15.5284L358.18 15.8182C358.052 16.2917 357.821 16.7064 357.487 17.0625C357.158 17.4148 356.743 17.6894 356.243 17.8864C355.747 18.0795 355.18 18.1761 354.544 18.1761ZM363.44 18.1705C362.736 18.1705 362.107 17.9905 361.554 17.6307C361.005 17.267 360.573 16.75 360.259 16.0795C359.948 15.4053 359.793 14.5966 359.793 13.6534C359.793 12.7102 359.95 11.9034 360.264 11.233C360.582 10.5625 361.018 10.0492 361.571 9.69318C362.124 9.33712 362.751 9.15909 363.452 9.15909C363.993 9.15909 364.429 9.25 364.759 9.43182C365.092 9.60985 365.349 9.81818 365.531 10.0568C365.717 10.2955 365.861 10.5057 365.963 10.6875H366.065V6.36364H367.764V18H366.105V16.642H365.963C365.861 16.8277 365.713 17.0398 365.52 17.2784C365.33 17.517 365.069 17.7254 364.736 17.9034C364.402 18.0814 363.971 18.1705 363.44 18.1705ZM363.815 16.7216C364.304 16.7216 364.717 16.5928 365.054 16.3352C365.395 16.0739 365.652 15.7121 365.827 15.25C366.005 14.7879 366.094 14.25 366.094 13.6364C366.094 13.0303 366.007 12.5 365.832 12.0455C365.658 11.5909 365.402 11.2367 365.065 10.983C364.728 10.7292 364.312 10.6023 363.815 10.6023C363.304 10.6023 362.878 10.7348 362.537 11C362.196 11.2652 361.938 11.6269 361.764 12.0852C361.594 12.5436 361.509 13.0606 361.509 13.6364C361.509 14.2197 361.596 14.7443 361.77 15.2102C361.944 15.6761 362.202 16.0455 362.543 16.3182C362.887 16.5871 363.312 16.7216 363.815 16.7216Z" fill="#0D141C"/>
</svg>
