<svg width="880" height="24" viewBox="0 0 880 24" fill="none" xmlns="http://www.w3.org/2000/svg">
<path d="M5.86364 6.36364H7.27273V14.6818C7.27273 15.4242 7.13636 16.0549 6.86364 16.5739C6.59091 17.0928 6.20644 17.4867 5.71023 17.7557C5.21402 18.0246 4.62879 18.1591 3.95455 18.1591C3.31818 18.1591 2.75189 18.0436 2.25568 17.8125C1.75947 17.5777 1.36932 17.2443 1.08523 16.8125C0.801136 16.3807 0.659091 15.8674 0.659091 15.2727H2.04545C2.04545 15.6023 2.12689 15.8902 2.28977 16.1364C2.45644 16.3788 2.68371 16.5682 2.97159 16.7045C3.25947 16.8409 3.58712 16.9091 3.95455 16.9091C4.35985 16.9091 4.70455 16.8239 4.98864 16.6534C5.27273 16.483 5.48864 16.233 5.63636 15.9034C5.78788 15.5701 5.86364 15.1629 5.86364 14.6818V6.36364ZM15.4148 14.4318V9.27273H16.7557V18H15.4148V16.5227H15.3239C15.1193 16.9659 14.8011 17.3428 14.3693 17.6534C13.9375 17.9602 13.392 18.1136 12.733 18.1136C12.1875 18.1136 11.7027 17.9943 11.2784 17.7557C10.8542 17.5133 10.5208 17.1496 10.2784 16.6648C10.036 16.1761 9.91477 15.5606 9.91477 14.8182V9.27273H11.2557V14.7273C11.2557 15.3636 11.4337 15.8712 11.7898 16.25C12.1496 16.6288 12.608 16.8182 13.1648 16.8182C13.4981 16.8182 13.8371 16.733 14.1818 16.5625C14.5303 16.392 14.822 16.1307 15.0568 15.7784C15.2955 15.4261 15.4148 14.9773 15.4148 14.4318ZM20.5526 6.36364V18H19.2116V6.36364H20.5526ZM23.8722 21.2727C23.6449 21.2727 23.4422 21.2538 23.2642 21.2159C23.0862 21.1818 22.9631 21.1477 22.8949 21.1136L23.2358 19.9318C23.5616 20.0152 23.8494 20.0455 24.0994 20.0227C24.3494 20 24.571 19.8883 24.7642 19.6875C24.9612 19.4905 25.1411 19.1705 25.304 18.7273L25.554 18.0455L22.3267 9.27273H23.7812L26.1903 16.2273H26.2812L28.6903 9.27273H30.1449L26.4403 19.2727C26.2737 19.7235 26.0672 20.0966 25.821 20.392C25.5748 20.6913 25.2888 20.9129 24.9631 21.0568C24.6411 21.2008 24.2775 21.2727 23.8722 21.2727ZM40.483 6.36364V18H39.0739V7.84091H39.0057L36.1648 9.72727V8.29545L39.0739 6.36364H40.483ZM47.625 18.1591C46.7689 18.1591 46.0398 17.9261 45.4375 17.4602C44.8352 16.9905 44.375 16.3106 44.0568 15.4205C43.7386 14.5265 43.5795 13.447 43.5795 12.1818C43.5795 10.9242 43.7386 9.85038 44.0568 8.96023C44.3788 8.06629 44.8409 7.38447 45.4432 6.91477C46.0492 6.44129 46.7765 6.20455 47.625 6.20455C48.4735 6.20455 49.1989 6.44129 49.8011 6.91477C50.4072 7.38447 50.8693 8.06629 51.1875 8.96023C51.5095 9.85038 51.6705 10.9242 51.6705 12.1818C51.6705 13.447 51.5114 14.5265 51.1932 15.4205C50.875 16.3106 50.4148 16.9905 49.8125 17.4602C49.2102 17.9261 48.4811 18.1591 47.625 18.1591ZM47.625 16.9091C48.4735 16.9091 49.1326 16.5 49.6023 15.6818C50.072 14.8636 50.3068 13.697 50.3068 12.1818C50.3068 11.1742 50.1989 10.3163 49.983 9.60795C49.7708 8.89962 49.464 8.35985 49.0625 7.98864C48.6648 7.61742 48.1856 7.43182 47.625 7.43182C46.7841 7.43182 46.1269 7.84659 45.6534 8.67614C45.1799 9.50189 44.9432 10.6705 44.9432 12.1818C44.9432 13.1894 45.0492 14.0455 45.2614 14.75C45.4735 15.4545 45.7784 15.9905 46.1761 16.358C46.5777 16.7254 47.0606 16.9091 47.625 16.9091ZM55.446 16.4091L55.3551 17.0227C55.2907 17.4545 55.1922 17.9167 55.0597 18.4091C54.9309 18.9015 54.7964 19.3655 54.6562 19.8011C54.5161 20.2367 54.4006 20.5833 54.3097 20.8409H53.2869C53.3362 20.5985 53.4006 20.2784 53.4801 19.8807C53.5597 19.483 53.6392 19.0379 53.7188 18.5455C53.8021 18.0568 53.8703 17.5568 53.9233 17.0455L53.9915 16.4091H55.446ZM62.4077 18V16.9773L66.2486 12.7727C66.6993 12.2803 67.0705 11.8523 67.3622 11.4886C67.6539 11.1212 67.8698 10.7765 68.0099 10.4545C68.1539 10.1288 68.2259 9.78788 68.2259 9.43182C68.2259 9.02273 68.1274 8.66856 67.9304 8.36932C67.7372 8.07008 67.4721 7.83901 67.1349 7.67614C66.7978 7.51326 66.419 7.43182 65.9986 7.43182C65.5516 7.43182 65.1615 7.52462 64.8281 7.71023C64.4986 7.89205 64.2429 8.14773 64.0611 8.47727C63.883 8.80682 63.794 9.19318 63.794 9.63636H62.4531C62.4531 8.95455 62.6103 8.35606 62.9247 7.84091C63.2391 7.32576 63.6671 6.92424 64.2088 6.63636C64.7543 6.34848 65.366 6.20455 66.044 6.20455C66.7259 6.20455 67.33 6.34848 67.8565 6.63636C68.383 6.92424 68.7959 7.3125 69.0952 7.80114C69.3944 8.28977 69.544 8.83333 69.544 9.43182C69.544 9.85985 69.4664 10.2784 69.3111 10.6875C69.1596 11.0928 68.8944 11.5455 68.5156 12.0455C68.1406 12.5417 67.6198 13.1477 66.9531 13.8636L64.3395 16.6591V16.75H69.7486V18H62.4077ZM75.8906 18.1591C75.0346 18.1591 74.3054 17.9261 73.7031 17.4602C73.1009 16.9905 72.6406 16.3106 72.3224 15.4205C72.0043 14.5265 71.8452 13.447 71.8452 12.1818C71.8452 10.9242 72.0043 9.85038 72.3224 8.96023C72.6444 8.06629 73.1065 7.38447 73.7088 6.91477C74.3149 6.44129 75.0421 6.20455 75.8906 6.20455C76.7391 6.20455 77.4645 6.44129 78.0668 6.91477C78.6728 7.38447 79.1349 8.06629 79.4531 8.96023C79.7751 9.85038 79.9361 10.9242 79.9361 12.1818C79.9361 13.447 79.777 14.5265 79.4588 15.4205C79.1406 16.3106 78.6804 16.9905 78.0781 17.4602C77.4759 17.9261 76.7467 18.1591 75.8906 18.1591ZM75.8906 16.9091C76.7391 16.9091 77.3982 16.5 77.8679 15.6818C78.3376 14.8636 78.5724 13.697 78.5724 12.1818C78.5724 11.1742 78.4645 10.3163 78.2486 9.60795C78.0365 8.89962 77.7296 8.35985 77.3281 7.98864C76.9304 7.61742 76.4512 7.43182 75.8906 7.43182C75.0497 7.43182 74.3925 7.84659 73.919 8.67614C73.4455 9.50189 73.2088 10.6705 73.2088 12.1818C73.2088 13.1894 73.3149 14.0455 73.527 14.75C73.7391 15.4545 74.044 15.9905 74.4418 16.358C74.8433 16.7254 75.3262 16.9091 75.8906 16.9091ZM82.0952 18V16.9773L85.9361 12.7727C86.3868 12.2803 86.758 11.8523 87.0497 11.4886C87.3414 11.1212 87.5573 10.7765 87.6974 10.4545C87.8414 10.1288 87.9134 9.78788 87.9134 9.43182C87.9134 9.02273 87.8149 8.66856 87.6179 8.36932C87.4247 8.07008 87.1596 7.83901 86.8224 7.67614C86.4853 7.51326 86.1065 7.43182 85.6861 7.43182C85.2391 7.43182 84.849 7.52462 84.5156 7.71023C84.1861 7.89205 83.9304 8.14773 83.7486 8.47727C83.5705 8.80682 83.4815 9.19318 83.4815 9.63636H82.1406C82.1406 8.95455 82.2978 8.35606 82.6122 7.84091C82.9266 7.32576 83.3546 6.92424 83.8963 6.63636C84.4418 6.34848 85.0535 6.20455 85.7315 6.20455C86.4134 6.20455 87.0175 6.34848 87.544 6.63636C88.0705 6.92424 88.4834 7.3125 88.7827 7.80114C89.0819 8.28977 89.2315 8.83333 89.2315 9.43182C89.2315 9.85985 89.1539 10.2784 88.9986 10.6875C88.8471 11.0928 88.5819 11.5455 88.2031 12.0455C87.8281 12.5417 87.3073 13.1477 86.6406 13.8636L84.027 16.6591V16.75H89.4361V18H82.0952ZM91.2599 15.6136V14.4545L96.3736 6.36364H97.2145V8.15909H96.6463L92.7827 14.2727V14.3636H99.669V15.6136H91.2599ZM96.7372 18V15.2614V14.7216V6.36364H98.0781V18H96.7372Z" fill="#4A739C"/>
</svg>
