<svg width="367" height="16" viewBox="0 0 367 16" fill="none" xmlns="http://www.w3.org/2000/svg">
<path d="M-2.74566e-06 12.119V0.46634H4.15354C5.06012 0.46634 5.81117 0.631344 6.4067 0.961352C7.00223 1.29136 7.44793 1.74275 7.7438 2.31552C8.03967 2.8845 8.18761 3.52555 8.18761 4.23867C8.18761 4.95559 8.03778 5.60043 7.73811 6.1732C7.44224 6.74218 6.99465 7.19357 6.39532 7.52737C5.79979 7.85738 5.05064 8.02238 4.14785 8.02238H1.29158V6.53166H3.98854C4.56131 6.53166 5.02598 6.43303 5.38254 6.23579C5.7391 6.03475 6.00083 5.76164 6.16773 5.41646C6.33463 5.07128 6.41808 4.67868 6.41808 4.23867C6.41808 3.79866 6.33463 3.40796 6.16773 3.06657C6.00083 2.72519 5.7372 2.45777 5.37685 2.26431C5.02029 2.07086 4.54993 1.97414 3.96578 1.97414H1.75814V12.119H-2.74566e-06ZM10.1122 12.119V3.37951H11.7565V4.76782H11.8476C12.0069 4.29747 12.2876 3.92763 12.6897 3.65831C13.0955 3.3852 13.5545 3.24865 14.0666 3.24865C14.1728 3.24865 14.298 3.25244 14.4421 3.26003C14.59 3.26761 14.7057 3.2771 14.7892 3.28848V4.91576C14.7209 4.89679 14.5995 4.87593 14.425 4.85317C14.2506 4.82662 14.0761 4.81334 13.9016 4.81334C13.4995 4.81334 13.141 4.89869 12.8262 5.06938C12.5152 5.23628 12.2686 5.46956 12.0865 5.76923C11.9045 6.06509 11.8134 6.40269 11.8134 6.78201V12.119H10.1122ZM19.6298 12.2954C18.8104 12.2954 18.0954 12.1077 17.4847 11.7321C16.874 11.3566 16.3999 10.8312 16.0623 10.1561C15.7247 9.48087 15.5559 8.69188 15.5559 7.7891C15.5559 6.88253 15.7247 6.08975 16.0623 5.41077C16.3999 4.73179 16.874 4.20453 17.4847 3.82901C18.0954 3.45348 18.8104 3.26572 19.6298 3.26572C20.4491 3.26572 21.1641 3.45348 21.7748 3.82901C22.3855 4.20453 22.8597 4.73179 23.1973 5.41077C23.5349 6.08975 23.7037 6.88253 23.7037 7.7891C23.7037 8.69188 23.5349 9.48087 23.1973 10.1561C22.8597 10.8312 22.3855 11.3566 21.7748 11.7321C21.1641 12.1077 20.4491 12.2954 19.6298 12.2954ZM19.6355 10.8673C20.1665 10.8673 20.6065 10.7269 20.9555 10.4462C21.3045 10.1655 21.5624 9.79191 21.7293 9.32534C21.9 8.85878 21.9853 8.3448 21.9853 7.78341C21.9853 7.22581 21.9 6.71373 21.7293 6.24717C21.5624 5.77681 21.3045 5.39939 20.9555 5.1149C20.6065 4.83041 20.1665 4.68817 19.6355 4.68817C19.1006 4.68817 18.6568 4.83041 18.3041 5.1149C17.9551 5.39939 17.6952 5.77681 17.5246 6.24717C17.3577 6.71373 17.2742 7.22581 17.2742 7.78341C17.2742 8.3448 17.3577 8.85878 17.5246 9.32534C17.6952 9.79191 17.9551 10.1655 18.3041 10.4462C18.6568 10.7269 19.1006 10.8673 19.6355 10.8673ZM25.6026 3.37951H27.3039V12.688C27.3039 13.2722 27.1977 13.7653 26.9853 14.1674C26.7766 14.5694 26.4656 14.8748 26.0521 15.0834C25.6425 15.292 25.1361 15.3964 24.533 15.3964C24.4723 15.3964 24.4154 15.3964 24.3623 15.3964C24.3054 15.3964 24.2466 15.3945 24.1859 15.3907V13.9284C24.239 13.9284 24.2864 13.9284 24.3281 13.9284C24.3661 13.9284 24.4097 13.9284 24.459 13.9284C24.8611 13.9284 25.1512 13.8203 25.3295 13.6041C25.5116 13.3916 25.6026 13.0825 25.6026 12.6766V3.37951ZM26.4447 2.03103C26.1489 2.03103 25.8947 1.93241 25.6823 1.73516C25.4737 1.53412 25.3694 1.29515 25.3694 1.01825C25.3694 0.737554 25.4737 0.498582 25.6823 0.301336C25.8947 0.100297 26.1489 -0.000222518 26.4447 -0.000222518C26.7406 -0.000222518 26.9928 0.100297 27.2015 0.301336C27.4139 0.498582 27.5201 0.737554 27.5201 1.01825C27.5201 1.29515 27.4139 1.53412 27.2015 1.73516C26.9928 1.93241 26.7406 2.03103 26.4447 2.03103ZM33.3592 12.2954C32.4982 12.2954 31.7566 12.1114 31.1345 11.7435C30.5162 11.3718 30.0383 10.8502 29.7007 10.1788C29.3669 9.50363 29.2 8.71274 29.2 7.80617C29.2 6.91098 29.3669 6.12199 29.7007 5.43922C30.0383 4.75644 30.5087 4.2235 31.1118 3.84039C31.7187 3.45727 32.428 3.26572 33.2398 3.26572C33.7329 3.26572 34.2108 3.34727 34.6736 3.51038C35.1364 3.67349 35.5517 3.92953 35.9196 4.2785C36.2876 4.62747 36.5778 5.08076 36.7902 5.63836C37.0026 6.19217 37.1088 6.86546 37.1088 7.65824V8.26135H30.1616V6.98684H35.4417C35.4417 6.53924 35.3507 6.14286 35.1686 5.79767C34.9865 5.4487 34.7305 5.17369 34.4005 4.97265C34.0743 4.77162 33.6911 4.6711 33.2511 4.6711C32.7732 4.6711 32.3559 4.78869 31.9994 5.02386C31.6466 5.25525 31.3735 5.5587 31.1801 5.93423C30.9904 6.30596 30.8956 6.70994 30.8956 7.14616V8.14187C30.8956 8.72602 30.998 9.22293 31.2028 9.63259C31.4114 10.0423 31.7016 10.3552 32.0733 10.5714C32.4451 10.7838 32.8794 10.89 33.3763 10.89C33.6987 10.89 33.9927 10.8445 34.2582 10.7535C34.5238 10.6587 34.7532 10.5183 34.9467 10.3324C35.1401 10.1466 35.2881 9.91708 35.3905 9.64397L37.0007 9.93415C36.8717 10.4083 36.6404 10.8237 36.3066 11.1802C35.9765 11.533 35.5612 11.808 35.0605 12.0052C34.5636 12.1987 33.9965 12.2954 33.3592 12.2954ZM42.6777 12.2954C41.8318 12.2954 41.1035 12.1039 40.4928 11.7207C39.8859 11.3338 39.4193 10.8009 39.0931 10.1219C38.7669 9.44293 38.6038 8.66533 38.6038 7.7891C38.6038 6.90149 38.7707 6.1182 39.1045 5.43922C39.4383 4.75644 39.9087 4.2235 40.5156 3.84039C41.1225 3.45727 41.8375 3.26572 42.6606 3.26572C43.3244 3.26572 43.9162 3.389 44.4358 3.63555C44.9555 3.87832 45.3747 4.21971 45.6933 4.65972C46.0157 5.09973 46.2073 5.6137 46.268 6.20165H44.6122C44.5212 5.79198 44.3126 5.43922 43.9863 5.14335C43.6639 4.84748 43.2315 4.69954 42.6891 4.69954C42.2149 4.69954 41.7996 4.82472 41.443 5.07507C41.0902 5.32163 40.8152 5.6744 40.618 6.13337C40.4207 6.58856 40.3221 7.12719 40.3221 7.74927C40.3221 8.38653 40.4188 8.93654 40.6123 9.39931C40.8058 9.86208 41.0789 10.2205 41.4316 10.4747C41.7882 10.7288 42.2073 10.8559 42.6891 10.8559C43.0115 10.8559 43.3036 10.7971 43.5653 10.6795C43.8308 10.5581 44.0527 10.3855 44.231 10.1617C44.4131 9.93795 44.5402 9.66863 44.6122 9.35379H46.268C46.2073 9.91898 46.0233 10.4235 45.716 10.8673C45.4088 11.3111 44.9972 11.6601 44.4814 11.9142C43.9693 12.1683 43.3681 12.2954 42.6777 12.2954ZM52.1668 3.37951V4.74506H47.3931V3.37951H52.1668ZM48.6733 1.28567H50.3746V9.55294C50.3746 9.88294 50.4239 10.1314 50.5225 10.2983C50.6211 10.4614 50.7482 10.5733 50.9037 10.634C51.063 10.6909 51.2356 10.7193 51.4215 10.7193C51.558 10.7193 51.6775 10.7099 51.7799 10.6909C51.8824 10.6719 51.962 10.6568 52.0189 10.6454L52.3262 12.0508C52.2275 12.0887 52.0872 12.1266 51.9051 12.1646C51.723 12.2063 51.4954 12.229 51.2223 12.2328C50.7747 12.2404 50.3575 12.1608 49.9706 11.9939C49.5837 11.827 49.2707 11.569 49.0318 11.22C48.7928 10.8711 48.6733 10.433 48.6733 9.9057V1.28567ZM59.5806 0.46634V4.6142H58.1696V0.46634H59.5806ZM61.9149 0.46634H64.0486L67.7583 9.52449H67.8948L71.6046 0.46634H73.7383V12.119H72.0655V3.68676H71.9574L68.5207 12.102H67.1324L63.6958 3.68107H63.5877V12.119H61.9149V0.46634ZM79.8391 12.2954C79.0198 12.2954 78.3048 12.1077 77.6941 11.7321C77.0834 11.3566 76.6092 10.8312 76.2716 10.1561C75.934 9.48087 75.7653 8.69188 75.7653 7.7891C75.7653 6.88253 75.934 6.08975 76.2716 5.41077C76.6092 4.73179 77.0834 4.20453 77.6941 3.82901C78.3048 3.45348 79.0198 3.26572 79.8391 3.26572C80.6585 3.26572 81.3735 3.45348 81.9842 3.82901C82.5949 4.20453 83.069 4.73179 83.4066 5.41077C83.7442 6.08975 83.913 6.88253 83.913 7.7891C83.913 8.69188 83.7442 9.48087 83.4066 10.1561C83.069 10.8312 82.5949 11.3566 81.9842 11.7321C81.3735 12.1077 80.6585 12.2954 79.8391 12.2954ZM79.8448 10.8673C80.3759 10.8673 80.8159 10.7269 81.1649 10.4462C81.5138 10.1655 81.7718 9.79191 81.9387 9.32534C82.1094 8.85878 82.1947 8.3448 82.1947 7.78341C82.1947 7.22581 82.1094 6.71373 81.9387 6.24717C81.7718 5.77681 81.5138 5.39939 81.1649 5.1149C80.8159 4.83041 80.3759 4.68817 79.8448 4.68817C79.31 4.68817 78.8662 4.83041 78.5134 5.1149C78.1644 5.39939 77.9046 5.77681 77.7339 6.24717C77.567 6.71373 77.4836 7.22581 77.4836 7.78341C77.4836 8.3448 77.567 8.85878 77.7339 9.32534C77.9046 9.79191 78.1644 10.1655 78.5134 10.4462C78.8662 10.7269 79.31 10.8673 79.8448 10.8673ZM85.9486 12.119V0.46634H87.6498V4.79627H87.7522C87.8508 4.6142 87.9931 4.40368 88.179 4.1647C88.3648 3.92573 88.6228 3.71711 88.9528 3.53883C89.2828 3.35675 89.719 3.26572 90.2614 3.26572C90.967 3.26572 91.5966 3.444 92.1504 3.80056C92.7042 4.15712 93.1386 4.6711 93.4534 5.34249C93.772 6.01389 93.9313 6.82184 93.9313 7.76634C93.9313 8.71085 93.7739 9.52069 93.4591 10.1959C93.1442 10.8673 92.7118 11.385 92.1618 11.7492C91.6118 12.1095 90.984 12.2897 90.2785 12.2897C89.7474 12.2897 89.3131 12.2006 88.9755 12.0223C88.6417 11.844 88.38 11.6354 88.1903 11.3964C88.0007 11.1575 87.8546 10.945 87.7522 10.7592H87.61V12.119H85.9486ZM87.6157 7.74927C87.6157 8.36377 87.7048 8.9024 87.8831 9.36517C88.0614 9.82794 88.3193 10.1902 88.6569 10.4519C88.9945 10.7099 89.4079 10.8388 89.8973 10.8388C90.4056 10.8388 90.8304 10.7042 91.1718 10.4349C91.5132 10.1617 91.7711 9.79191 91.9456 9.32534C92.1239 8.85878 92.213 8.33342 92.213 7.74927C92.213 7.17271 92.1258 6.65494 91.9513 6.19596C91.7806 5.73698 91.5227 5.37473 91.1775 5.10921C90.8361 4.84369 90.4094 4.71092 89.8973 4.71092C89.4042 4.71092 88.9869 4.838 88.6455 5.09214C88.3079 5.34628 88.0519 5.70095 87.8774 6.15613C87.7029 6.61131 87.6157 7.14236 87.6157 7.74927ZM95.8417 12.119V3.37951H97.5429V12.119H95.8417ZM96.7008 2.03103C96.405 2.03103 96.1508 1.93241 95.9384 1.73516C95.7298 1.53412 95.6255 1.29515 95.6255 1.01825C95.6255 0.737554 95.7298 0.498582 95.9384 0.301336C96.1508 0.100297 96.405 -0.000222518 96.7008 -0.000222518C96.9967 -0.000222518 97.249 0.100297 97.4576 0.301336C97.67 0.498582 97.7762 0.737554 97.7762 1.01825C97.7762 1.29515 97.67 1.53412 97.4576 1.73516C97.249 1.93241 96.9967 2.03103 96.7008 2.03103ZM101.533 0.46634V12.119H99.8316V0.46634H101.533ZM107.588 12.2954C106.727 12.2954 105.986 12.1114 105.364 11.7435C104.745 11.3718 104.267 10.8502 103.93 10.1788C103.596 9.50363 103.429 8.71274 103.429 7.80617C103.429 6.91098 103.596 6.12199 103.93 5.43922C104.267 4.75644 104.738 4.2235 105.341 3.84039C105.948 3.45727 106.657 3.26572 107.469 3.26572C107.962 3.26572 108.44 3.34727 108.903 3.51038C109.365 3.67349 109.781 3.92953 110.149 4.2785C110.517 4.62747 110.807 5.08076 111.019 5.63836C111.232 6.19217 111.338 6.86546 111.338 7.65824V8.26135H104.391V6.98684H109.671C109.671 6.53924 109.58 6.14286 109.398 5.79767C109.216 5.4487 108.959 5.17369 108.629 4.97265C108.303 4.77162 107.92 4.6711 107.48 4.6711C107.002 4.6711 106.585 4.78869 106.228 5.02386C105.876 5.25525 105.603 5.5587 105.409 5.93423C105.219 6.30596 105.125 6.70994 105.125 7.14616V8.14187C105.125 8.72602 105.227 9.22293 105.432 9.63259C105.64 10.0423 105.931 10.3552 106.302 10.5714C106.674 10.7838 107.108 10.89 107.605 10.89C107.928 10.89 108.222 10.8445 108.487 10.7535C108.753 10.6587 108.982 10.5183 109.176 10.3324C109.369 10.1466 109.517 9.91708 109.62 9.64397L111.23 9.93415C111.101 10.4083 110.869 10.8237 110.536 11.1802C110.206 11.533 109.79 11.808 109.29 12.0052C108.793 12.1987 108.226 12.2954 107.588 12.2954ZM118.587 12.119H116.72L120.914 0.46634H122.945L127.138 12.119H125.272L121.978 2.58294H121.887L118.587 12.119ZM118.9 7.55582H124.953V9.03517H118.9V7.55582ZM128.685 15.3964V3.37951H130.346V4.79627H130.488C130.587 4.6142 130.729 4.40368 130.915 4.1647C131.101 3.92573 131.359 3.71711 131.689 3.53883C132.019 3.35675 132.455 3.26572 132.997 3.26572C133.703 3.26572 134.333 3.444 134.886 3.80056C135.44 4.15712 135.875 4.6711 136.189 5.34249C136.508 6.01389 136.667 6.82184 136.667 7.76634C136.667 8.71085 136.51 9.52069 136.195 10.1959C135.88 10.8673 135.448 11.385 134.898 11.7492C134.348 12.1095 133.72 12.2897 133.015 12.2897C132.483 12.2897 132.049 12.2006 131.712 12.0223C131.378 11.844 131.116 11.6354 130.926 11.3964C130.737 11.1575 130.591 10.945 130.488 10.7592H130.386V15.3964H128.685ZM130.352 7.74927C130.352 8.36377 130.441 8.9024 130.619 9.36517C130.797 9.82794 131.055 10.1902 131.393 10.4519C131.731 10.7099 132.144 10.8388 132.633 10.8388C133.142 10.8388 133.566 10.7042 133.908 10.4349C134.249 10.1617 134.507 9.79191 134.682 9.32534C134.86 8.85878 134.949 8.33342 134.949 7.74927C134.949 7.17271 134.862 6.65494 134.687 6.19596C134.517 5.73698 134.259 5.37473 133.913 5.10921C133.572 4.84369 133.145 4.71092 132.633 4.71092C132.14 4.71092 131.723 4.838 131.382 5.09214C131.044 5.34628 130.788 5.70095 130.613 6.15613C130.439 6.61131 130.352 7.14236 130.352 7.74927ZM138.573 15.3964V3.37951H140.235V4.79627H140.377C140.476 4.6142 140.618 4.40368 140.804 4.1647C140.99 3.92573 141.248 3.71711 141.578 3.53883C141.908 3.35675 142.344 3.26572 142.886 3.26572C143.592 3.26572 144.221 3.444 144.775 3.80056C145.329 4.15712 145.763 4.6711 146.078 5.34249C146.397 6.01389 146.556 6.82184 146.556 7.76634C146.556 8.71085 146.399 9.52069 146.084 10.1959C145.769 10.8673 145.337 11.385 144.787 11.7492C144.237 12.1095 143.609 12.2897 142.903 12.2897C142.372 12.2897 141.938 12.2006 141.6 12.0223C141.267 11.844 141.005 11.6354 140.815 11.3964C140.626 11.1575 140.48 10.945 140.377 10.7592H140.275V15.3964H138.573ZM140.241 7.74927C140.241 8.36377 140.33 8.9024 140.508 9.36517C140.686 9.82794 140.944 10.1902 141.282 10.4519C141.619 10.7099 142.033 10.8388 142.522 10.8388C143.03 10.8388 143.455 10.7042 143.797 10.4349C144.138 10.1617 144.396 9.79191 144.57 9.32534C144.749 8.85878 144.838 8.33342 144.838 7.74927C144.838 7.17271 144.751 6.65494 144.576 6.19596C144.405 5.73698 144.148 5.37473 143.802 5.10921C143.461 4.84369 143.034 4.71092 142.522 4.71092C142.029 4.71092 141.612 4.838 141.27 5.09214C140.933 5.34628 140.677 5.70095 140.502 6.15613C140.328 6.61131 140.241 7.14236 140.241 7.74927ZM150.164 0.46634V12.119H148.462V0.46634H150.164ZM152.452 12.119V3.37951H154.154V12.119H152.452ZM153.311 2.03103C153.016 2.03103 152.761 1.93241 152.549 1.73516C152.34 1.53412 152.236 1.29515 152.236 1.01825C152.236 0.737554 152.34 0.498582 152.549 0.301336C152.761 0.100297 153.016 -0.000222518 153.311 -0.000222518C153.607 -0.000222518 153.86 0.100297 154.068 0.301336C154.281 0.498582 154.387 0.737554 154.387 1.01825C154.387 1.29515 154.281 1.53412 154.068 1.73516C153.86 1.93241 153.607 2.03103 153.311 2.03103ZM160.124 12.2954C159.278 12.2954 158.549 12.1039 157.939 11.7207C157.332 11.3338 156.865 10.8009 156.539 10.1219C156.213 9.44293 156.05 8.66533 156.05 7.7891C156.05 6.90149 156.217 6.1182 156.55 5.43922C156.884 4.75644 157.354 4.2235 157.961 3.84039C158.568 3.45727 159.283 3.26572 160.106 3.26572C160.77 3.26572 161.362 3.389 161.882 3.63555C162.401 3.87832 162.82 4.21971 163.139 4.65972C163.462 5.09973 163.653 5.6137 163.714 6.20165H162.058C161.967 5.79198 161.758 5.43922 161.432 5.14335C161.11 4.84748 160.677 4.69954 160.135 4.69954C159.661 4.69954 159.245 4.82472 158.889 5.07507C158.536 5.32163 158.261 5.6744 158.064 6.13337C157.867 6.58856 157.768 7.12719 157.768 7.74927C157.768 8.38653 157.865 8.93654 158.058 9.39931C158.252 9.86208 158.525 10.2205 158.877 10.4747C159.234 10.7288 159.653 10.8559 160.135 10.8559C160.457 10.8559 160.749 10.7971 161.011 10.6795C161.277 10.5581 161.499 10.3855 161.677 10.1617C161.859 9.93795 161.986 9.66863 162.058 9.35379H163.714C163.653 9.91898 163.469 10.4235 163.162 10.8673C162.855 11.3111 162.443 11.6601 161.927 11.9142C161.415 12.1683 160.814 12.2954 160.124 12.2954ZM168.076 12.3125C167.523 12.3125 167.022 12.2101 166.574 12.0052C166.127 11.7966 165.772 11.4951 165.51 11.1006C165.252 10.7061 165.123 10.2224 165.123 9.64966C165.123 9.15655 165.218 8.75068 165.408 8.43205C165.598 8.11342 165.854 7.86117 166.176 7.67531C166.498 7.48944 166.859 7.34909 167.257 7.25426C167.655 7.15943 168.061 7.08736 168.475 7.03805C168.998 6.97736 169.423 6.92805 169.749 6.89011C170.075 6.84839 170.313 6.78201 170.46 6.69097C170.608 6.59993 170.682 6.452 170.682 6.24717V6.20734C170.682 5.71043 170.542 5.32542 170.261 5.05231C169.984 4.7792 169.571 4.64265 169.021 4.64265C168.448 4.64265 167.997 4.76972 167.667 5.02386C167.341 5.27421 167.115 5.55301 166.99 5.86026L165.391 5.49612C165.58 4.96507 165.857 4.53644 166.222 4.21022C166.589 3.88021 167.012 3.64124 167.49 3.49331C167.968 3.34158 168.471 3.26572 168.998 3.26572C169.347 3.26572 169.717 3.30744 170.108 3.39089C170.502 3.47055 170.87 3.61848 171.211 3.8347C171.557 4.05091 171.839 4.36005 172.059 4.76213C172.279 5.16042 172.389 5.67819 172.389 6.31545V12.119H170.728V10.9242H170.66C170.55 11.1442 170.385 11.3604 170.165 11.5728C169.945 11.7852 169.662 11.9616 169.317 12.102C168.972 12.2423 168.558 12.3125 168.076 12.3125ZM168.446 10.9469C168.917 10.9469 169.319 10.854 169.652 10.6681C169.99 10.4823 170.246 10.2395 170.421 9.93984C170.599 9.63639 170.688 9.31207 170.688 8.96689V7.84031C170.627 7.901 170.51 7.9579 170.335 8.011C170.165 8.06031 169.969 8.10394 169.749 8.14187C169.529 8.17601 169.315 8.20825 169.106 8.23859C168.898 8.26515 168.723 8.28791 168.583 8.30687C168.253 8.3486 167.951 8.41877 167.678 8.51739C167.409 8.61602 167.193 8.75826 167.029 8.94413C166.87 9.1262 166.791 9.36897 166.791 9.67242C166.791 10.0935 166.946 10.4121 167.257 10.6283C167.568 10.8407 167.965 10.9469 168.446 10.9469ZM178.735 3.37951V4.74506H173.961V3.37951H178.735ZM175.241 1.28567H176.943V9.55294C176.943 9.88294 176.992 10.1314 177.09 10.2983C177.189 10.4614 177.316 10.5733 177.472 10.634C177.631 10.6909 177.804 10.7193 177.989 10.7193C178.126 10.7193 178.245 10.7099 178.348 10.6909C178.45 10.6719 178.53 10.6568 178.587 10.6454L178.894 12.0508C178.796 12.0887 178.655 12.1266 178.473 12.1646C178.291 12.2063 178.063 12.229 177.79 12.2328C177.343 12.2404 176.925 12.1608 176.539 11.9939C176.152 11.827 175.839 11.569 175.6 11.22C175.361 10.8711 175.241 10.433 175.241 9.9057V1.28567ZM180.617 12.119V3.37951H182.318V12.119H180.617ZM181.476 2.03103C181.18 2.03103 180.926 1.93241 180.713 1.73516C180.505 1.53412 180.401 1.29515 180.401 1.01825C180.401 0.737554 180.505 0.498582 180.713 0.301336C180.926 0.100297 181.18 -0.000222518 181.476 -0.000222518C181.772 -0.000222518 182.024 0.100297 182.233 0.301336C182.445 0.498582 182.551 0.737554 182.551 1.01825C182.551 1.29515 182.445 1.53412 182.233 1.73516C182.024 1.93241 181.772 2.03103 181.476 2.03103ZM188.288 12.2954C187.469 12.2954 186.754 12.1077 186.143 11.7321C185.532 11.3566 185.058 10.8312 184.72 10.1561C184.383 9.48087 184.214 8.69188 184.214 7.7891C184.214 6.88253 184.383 6.08975 184.72 5.41077C185.058 4.73179 185.532 4.20453 186.143 3.82901C186.754 3.45348 187.469 3.26572 188.288 3.26572C189.107 3.26572 189.822 3.45348 190.433 3.82901C191.044 4.20453 191.518 4.73179 191.855 5.41077C192.193 6.08975 192.362 6.88253 192.362 7.7891C192.362 8.69188 192.193 9.48087 191.855 10.1561C191.518 10.8312 191.044 11.3566 190.433 11.7321C189.822 12.1077 189.107 12.2954 188.288 12.2954ZM188.294 10.8673C188.825 10.8673 189.265 10.7269 189.614 10.4462C189.963 10.1655 190.221 9.79191 190.388 9.32534C190.558 8.85878 190.644 8.3448 190.644 7.78341C190.644 7.22581 190.558 6.71373 190.388 6.24717C190.221 5.77681 189.963 5.39939 189.614 5.1149C189.265 4.83041 188.825 4.68817 188.294 4.68817C187.759 4.68817 187.315 4.83041 186.962 5.1149C186.613 5.39939 186.353 5.77681 186.183 6.24717C186.016 6.71373 185.932 7.22581 185.932 7.78341C185.932 8.3448 186.016 8.85878 186.183 9.32534C186.353 9.79191 186.613 10.1655 186.962 10.4462C187.315 10.7269 187.759 10.8673 188.294 10.8673ZM195.962 6.92994V12.119H194.261V3.37951H195.894V4.80196H196.002C196.203 4.33919 196.518 3.96746 196.946 3.68676C197.379 3.40607 197.923 3.26572 198.579 3.26572C199.175 3.26572 199.696 3.39089 200.144 3.64124C200.592 3.8878 200.939 4.25574 201.185 4.74506C201.432 5.23439 201.555 5.8394 201.555 6.56011V12.119H199.854V6.76494C199.854 6.13148 199.689 5.63646 199.359 5.2799C199.029 4.91955 198.576 4.73937 197.999 4.73937C197.605 4.73937 197.254 4.82472 196.946 4.99541C196.643 5.16611 196.402 5.41646 196.224 5.74647C196.049 6.07268 195.962 6.46717 195.962 6.92994ZM209.198 12.119H207.332L211.525 0.46634H213.556L217.75 12.119H215.883L212.589 2.58294H212.498L209.198 12.119ZM209.511 7.55582H215.565V9.03517H209.511V7.55582ZM219.296 12.119V3.37951H220.94V4.76782H221.031C221.191 4.29747 221.471 3.92763 221.873 3.65831C222.279 3.3852 222.738 3.24865 223.25 3.24865C223.357 3.24865 223.482 3.25244 223.626 3.26003C223.774 3.26761 223.889 3.2771 223.973 3.28848V4.91576C223.905 4.89679 223.783 4.87593 223.609 4.85317C223.434 4.82662 223.26 4.81334 223.085 4.81334C222.683 4.81334 222.325 4.89869 222.01 5.06938C221.699 5.23628 221.452 5.46956 221.27 5.76923C221.088 6.06509 220.997 6.40269 220.997 6.78201V12.119H219.296ZM228.814 12.2954C227.968 12.2954 227.239 12.1039 226.629 11.7207C226.022 11.3338 225.555 10.8009 225.229 10.1219C224.903 9.44293 224.74 8.66533 224.74 7.7891C224.74 6.90149 224.907 6.1182 225.24 5.43922C225.574 4.75644 226.044 4.2235 226.651 3.84039C227.258 3.45727 227.973 3.26572 228.796 3.26572C229.46 3.26572 230.052 3.389 230.572 3.63555C231.091 3.87832 231.51 4.21971 231.829 4.65972C232.152 5.09973 232.343 5.6137 232.404 6.20165H230.748C230.657 5.79198 230.448 5.43922 230.122 5.14335C229.8 4.84748 229.367 4.69954 228.825 4.69954C228.351 4.69954 227.935 4.82472 227.579 5.07507C227.226 5.32163 226.951 5.6744 226.754 6.13337C226.557 6.58856 226.458 7.12719 226.458 7.74927C226.458 8.38653 226.555 8.93654 226.748 9.39931C226.942 9.86208 227.215 10.2205 227.567 10.4747C227.924 10.7288 228.343 10.8559 228.825 10.8559C229.147 10.8559 229.439 10.7971 229.701 10.6795C229.967 10.5581 230.189 10.3855 230.367 10.1617C230.549 9.93795 230.676 9.66863 230.748 9.35379H232.404C232.343 9.91898 232.159 10.4235 231.852 10.8673C231.545 11.3111 231.133 11.6601 230.617 11.9142C230.105 12.1683 229.504 12.2954 228.814 12.2954ZM235.924 6.92994V12.119H234.223V0.46634H235.902V4.80196H236.01C236.215 4.3316 236.527 3.95798 236.948 3.68107C237.37 3.40417 237.92 3.26572 238.599 3.26572C239.198 3.26572 239.721 3.389 240.169 3.63555C240.62 3.88211 240.969 4.25005 241.216 4.73937C241.466 5.2249 241.591 5.83181 241.591 6.56011V12.119H239.89V6.76494C239.89 6.12389 239.725 5.62698 239.395 5.27421C239.065 4.91765 238.606 4.73937 238.018 4.73937C237.616 4.73937 237.256 4.82472 236.937 4.99541C236.622 5.16611 236.374 5.41646 236.192 5.74647C236.013 6.07268 235.924 6.46717 235.924 6.92994ZM243.862 12.119V3.37951H245.563V12.119H243.862ZM244.721 2.03103C244.425 2.03103 244.171 1.93241 243.958 1.73516C243.75 1.53412 243.645 1.29515 243.645 1.01825C243.645 0.737554 243.75 0.498582 243.958 0.301336C244.171 0.100297 244.425 -0.000222518 244.721 -0.000222518C245.017 -0.000222518 245.269 0.100297 245.477 0.301336C245.69 0.498582 245.796 0.737554 245.796 1.01825C245.796 1.29515 245.69 1.53412 245.477 1.73516C245.269 1.93241 245.017 2.03103 244.721 2.03103ZM251.931 3.37951V4.74506H247.157V3.37951H251.931ZM248.438 1.28567H250.139V9.55294C250.139 9.88294 250.188 10.1314 250.287 10.2983C250.385 10.4614 250.512 10.5733 250.668 10.634C250.827 10.6909 251 10.7193 251.186 10.7193C251.322 10.7193 251.442 10.7099 251.544 10.6909C251.647 10.6719 251.726 10.6568 251.783 10.6454L252.09 12.0508C251.992 12.0887 251.851 12.1266 251.669 12.1646C251.487 12.2063 251.26 12.229 250.987 12.2328C250.539 12.2404 250.122 12.1608 249.735 11.9939C249.348 11.827 249.035 11.569 248.796 11.22C248.557 10.8711 248.438 10.433 248.438 9.9057V1.28567ZM257.486 12.2954C256.625 12.2954 255.883 12.1114 255.261 11.7435C254.643 11.3718 254.165 10.8502 253.827 10.1788C253.493 9.50363 253.327 8.71274 253.327 7.80617C253.327 6.91098 253.493 6.12199 253.827 5.43922C254.165 4.75644 254.635 4.2235 255.238 3.84039C255.845 3.45727 256.555 3.26572 257.366 3.26572C257.859 3.26572 258.337 3.34727 258.8 3.51038C259.263 3.67349 259.678 3.92953 260.046 4.2785C260.414 4.62747 260.704 5.08076 260.917 5.63836C261.129 6.19217 261.235 6.86546 261.235 7.65824V8.26135H254.288V6.98684H259.568C259.568 6.53924 259.477 6.14286 259.295 5.79767C259.113 5.4487 258.857 5.17369 258.527 4.97265C258.201 4.77162 257.818 4.6711 257.378 4.6711C256.9 4.6711 256.482 4.78869 256.126 5.02386C255.773 5.25525 255.5 5.5587 255.307 5.93423C255.117 6.30596 255.022 6.70994 255.022 7.14616V8.14187C255.022 8.72602 255.125 9.22293 255.329 9.63259C255.538 10.0423 255.828 10.3552 256.2 10.5714C256.572 10.7838 257.006 10.89 257.503 10.89C257.825 10.89 258.119 10.8445 258.385 10.7535C258.65 10.6587 258.88 10.5183 259.073 10.3324C259.267 10.1466 259.415 9.91708 259.517 9.64397L261.127 9.93415C260.998 10.4083 260.767 10.8237 260.433 11.1802C260.103 11.533 259.688 11.808 259.187 12.0052C258.69 12.1987 258.123 12.2954 257.486 12.2954ZM266.804 12.2954C265.958 12.2954 265.23 12.1039 264.619 11.7207C264.012 11.3338 263.546 10.8009 263.22 10.1219C262.893 9.44293 262.73 8.66533 262.73 7.7891C262.73 6.90149 262.897 6.1182 263.231 5.43922C263.565 4.75644 264.035 4.2235 264.642 3.84039C265.249 3.45727 265.964 3.26572 266.787 3.26572C267.451 3.26572 268.043 3.389 268.562 3.63555C269.082 3.87832 269.501 4.21971 269.82 4.65972C270.142 5.09973 270.334 5.6137 270.395 6.20165H268.739C268.648 5.79198 268.439 5.43922 268.113 5.14335C267.79 4.84748 267.358 4.69954 266.816 4.69954C266.341 4.69954 265.926 4.82472 265.57 5.07507C265.217 5.32163 264.942 5.6744 264.745 6.13337C264.547 6.58856 264.449 7.12719 264.449 7.74927C264.449 8.38653 264.545 8.93654 264.739 9.39931C264.932 9.86208 265.205 10.2205 265.558 10.4747C265.915 10.7288 266.334 10.8559 266.816 10.8559C267.138 10.8559 267.43 10.7971 267.692 10.6795C267.957 10.5581 268.179 10.3855 268.358 10.1617C268.54 9.93795 268.667 9.66863 268.739 9.35379H270.395C270.334 9.91898 270.15 10.4235 269.843 10.8673C269.535 11.3111 269.124 11.6601 268.608 11.9142C268.096 12.1683 267.495 12.2954 266.804 12.2954ZM276.293 3.37951V4.74506H271.52V3.37951H276.293ZM272.8 1.28567H274.501V9.55294C274.501 9.88294 274.55 10.1314 274.649 10.2983C274.748 10.4614 274.875 10.5733 275.03 10.634C275.19 10.6909 275.362 10.7193 275.548 10.7193C275.685 10.7193 275.804 10.7099 275.906 10.6909C276.009 10.6719 276.089 10.6568 276.145 10.6454L276.453 12.0508C276.354 12.0887 276.214 12.1266 276.032 12.1646C275.85 12.2063 275.622 12.229 275.349 12.2328C274.901 12.2404 274.484 12.1608 274.097 11.9939C273.71 11.827 273.397 11.569 273.158 11.22C272.919 10.8711 272.8 10.433 272.8 9.9057V1.28567ZM283.711 8.49464V3.37951H285.418V12.119H283.746V10.6055H283.655C283.454 11.0721 283.131 11.4609 282.687 11.772C282.247 12.0792 281.699 12.2328 281.043 12.2328C280.482 12.2328 279.985 12.1095 279.552 11.863C279.124 11.6126 278.786 11.2428 278.539 10.7535C278.297 10.2642 278.175 9.65915 278.175 8.93844V3.37951H279.877V8.73361C279.877 9.32914 280.042 9.80329 280.372 10.1561C280.702 10.5088 281.13 10.6852 281.657 10.6852C281.976 10.6852 282.293 10.6055 282.608 10.4462C282.926 10.2869 283.19 10.0461 283.399 9.72363C283.611 9.40121 283.715 8.99154 283.711 8.49464ZM287.704 12.119V3.37951H289.349V4.76782H289.44C289.599 4.29747 289.88 3.92763 290.282 3.65831C290.688 3.3852 291.147 3.24865 291.659 3.24865C291.765 3.24865 291.89 3.25244 292.034 3.26003C292.182 3.26761 292.298 3.2771 292.381 3.28848V4.91576C292.313 4.89679 292.192 4.87593 292.017 4.85317C291.843 4.82662 291.668 4.81334 291.494 4.81334C291.092 4.81334 290.733 4.89869 290.418 5.06938C290.107 5.23628 289.861 5.46956 289.679 5.76923C289.497 6.06509 289.406 6.40269 289.406 6.78201V12.119H287.704ZM297.307 12.2954C296.446 12.2954 295.705 12.1114 295.083 11.7435C294.464 11.3718 293.986 10.8502 293.649 10.1788C293.315 9.50363 293.148 8.71274 293.148 7.80617C293.148 6.91098 293.315 6.12199 293.649 5.43922C293.986 4.75644 294.457 4.2235 295.06 3.84039C295.667 3.45727 296.376 3.26572 297.188 3.26572C297.681 3.26572 298.159 3.34727 298.622 3.51038C299.084 3.67349 299.5 3.92953 299.868 4.2785C300.236 4.62747 300.526 5.08076 300.738 5.63836C300.951 6.19217 301.057 6.86546 301.057 7.65824V8.26135H294.11V6.98684H299.39C299.39 6.53924 299.299 6.14286 299.117 5.79767C298.934 5.4487 298.678 5.17369 298.348 4.97265C298.022 4.77162 297.639 4.6711 297.199 4.6711C296.721 4.6711 296.304 4.78869 295.947 5.02386C295.595 5.25525 295.321 5.5587 295.128 5.93423C294.938 6.30596 294.844 6.70994 294.844 7.14616V8.14187C294.844 8.72602 294.946 9.22293 295.151 9.63259C295.359 10.0423 295.65 10.3552 296.021 10.5714C296.393 10.7838 296.827 10.89 297.324 10.89C297.647 10.89 297.941 10.8445 298.206 10.7535C298.472 10.6587 298.701 10.5183 298.895 10.3324C299.088 10.1466 299.236 9.91708 299.338 9.64397L300.949 9.93415C300.82 10.4083 300.588 10.8237 300.255 11.1802C299.925 11.533 299.509 11.808 299.008 12.0052C298.512 12.1987 297.944 12.2954 297.307 12.2954ZM304.236 0.46634V4.6142H302.825V0.46634H304.236ZM314.355 12.2954C313.509 12.2954 312.781 12.1039 312.17 11.7207C311.563 11.3338 311.097 10.8009 310.771 10.1219C310.444 9.44293 310.281 8.66533 310.281 7.7891C310.281 6.90149 310.448 6.1182 310.782 5.43922C311.116 4.75644 311.586 4.2235 312.193 3.84039C312.8 3.45727 313.515 3.26572 314.338 3.26572C315.002 3.26572 315.594 3.389 316.113 3.63555C316.633 3.87832 317.052 4.21971 317.371 4.65972C317.693 5.09973 317.885 5.6137 317.946 6.20165H316.29C316.199 5.79198 315.99 5.43922 315.664 5.14335C315.341 4.84748 314.909 4.69954 314.367 4.69954C313.892 4.69954 313.477 4.82472 313.121 5.07507C312.768 5.32163 312.493 5.6744 312.296 6.13337C312.098 6.58856 312 7.12719 312 7.74927C312 8.38653 312.096 8.93654 312.29 9.39931C312.483 9.86208 312.756 10.2205 313.109 10.4747C313.466 10.7288 313.885 10.8559 314.367 10.8559C314.689 10.8559 314.981 10.7971 315.243 10.6795C315.508 10.5581 315.73 10.3855 315.909 10.1617C316.091 9.93795 316.218 9.66863 316.29 9.35379H317.946C317.885 9.91898 317.701 10.4235 317.394 10.8673C317.086 11.3111 316.675 11.6601 316.159 11.9142C315.647 12.1683 315.046 12.2954 314.355 12.2954ZM319.765 12.119V3.37951H321.409V4.76782H321.5C321.66 4.29747 321.94 3.92763 322.342 3.65831C322.748 3.3852 323.207 3.24865 323.719 3.24865C323.825 3.24865 323.951 3.25244 324.095 3.26003C324.243 3.26761 324.358 3.2771 324.442 3.28848V4.91576C324.374 4.89679 324.252 4.87593 324.078 4.85317C323.903 4.82662 323.729 4.81334 323.554 4.81334C323.152 4.81334 322.794 4.89869 322.479 5.06938C322.168 5.23628 321.921 5.46956 321.739 5.76923C321.557 6.06509 321.466 6.40269 321.466 6.78201V12.119H319.765ZM329.368 12.2954C328.507 12.2954 327.765 12.1114 327.143 11.7435C326.525 11.3718 326.047 10.8502 325.709 10.1788C325.375 9.50363 325.209 8.71274 325.209 7.80617C325.209 6.91098 325.375 6.12199 325.709 5.43922C326.047 4.75644 326.517 4.2235 327.12 3.84039C327.727 3.45727 328.437 3.26572 329.248 3.26572C329.741 3.26572 330.219 3.34727 330.682 3.51038C331.145 3.67349 331.56 3.92953 331.928 4.2785C332.296 4.62747 332.586 5.08076 332.799 5.63836C333.011 6.19217 333.117 6.86546 333.117 7.65824V8.26135H326.17V6.98684H331.45C331.45 6.53924 331.359 6.14286 331.177 5.79767C330.995 5.4487 330.739 5.17369 330.409 4.97265C330.083 4.77162 329.7 4.6711 329.26 4.6711C328.782 4.6711 328.364 4.78869 328.008 5.02386C327.655 5.25525 327.382 5.5587 327.189 5.93423C326.999 6.30596 326.904 6.70994 326.904 7.14616V8.14187C326.904 8.72602 327.007 9.22293 327.211 9.63259C327.42 10.0423 327.71 10.3552 328.082 10.5714C328.454 10.7838 328.888 10.89 329.385 10.89C329.707 10.89 330.001 10.8445 330.267 10.7535C330.532 10.6587 330.762 10.5183 330.955 10.3324C331.149 10.1466 331.297 9.91708 331.399 9.64397L333.009 9.93415C332.88 10.4083 332.649 10.8237 332.315 11.1802C331.985 11.533 331.57 11.808 331.069 12.0052C330.572 12.1987 330.005 12.2954 329.368 12.2954ZM337.548 12.3125C336.994 12.3125 336.494 12.2101 336.046 12.0052C335.599 11.7966 335.244 11.4951 334.982 11.1006C334.724 10.7061 334.595 10.2224 334.595 9.64966C334.595 9.15655 334.69 8.75068 334.88 8.43205C335.069 8.11342 335.325 7.86117 335.648 7.67531C335.97 7.48944 336.331 7.34909 336.729 7.25426C337.127 7.15943 337.533 7.08736 337.947 7.03805C338.47 6.97736 338.895 6.92805 339.221 6.89011C339.547 6.84839 339.784 6.78201 339.932 6.69097C340.08 6.59993 340.154 6.452 340.154 6.24717V6.20734C340.154 5.71043 340.014 5.32542 339.733 5.05231C339.456 4.7792 339.043 4.64265 338.493 4.64265C337.92 4.64265 337.469 4.76972 337.139 5.02386C336.812 5.27421 336.587 5.55301 336.462 5.86026L334.863 5.49612C335.052 4.96507 335.329 4.53644 335.693 4.21022C336.061 3.88021 336.484 3.64124 336.962 3.49331C337.44 3.34158 337.943 3.26572 338.47 3.26572C338.819 3.26572 339.189 3.30744 339.58 3.39089C339.974 3.47055 340.342 3.61848 340.683 3.8347C341.029 4.05091 341.311 4.36005 341.531 4.76213C341.751 5.16042 341.861 5.67819 341.861 6.31545V12.119H340.2V10.9242H340.131C340.021 11.1442 339.856 11.3604 339.636 11.5728C339.416 11.7852 339.134 11.9616 338.789 12.102C338.443 12.2423 338.03 12.3125 337.548 12.3125ZM337.918 10.9469C338.388 10.9469 338.791 10.854 339.124 10.6681C339.462 10.4823 339.718 10.2395 339.892 9.93984C340.071 9.63639 340.16 9.31207 340.16 8.96689V7.84031C340.099 7.901 339.982 7.9579 339.807 8.011C339.636 8.06031 339.441 8.10394 339.221 8.14187C339.001 8.17601 338.787 8.20825 338.578 8.23859C338.369 8.26515 338.195 8.28791 338.055 8.30687C337.725 8.3486 337.423 8.41877 337.15 8.51739C336.881 8.61602 336.664 8.75826 336.501 8.94413C336.342 9.1262 336.262 9.36897 336.262 9.67242C336.262 10.0935 336.418 10.4121 336.729 10.6283C337.04 10.8407 337.436 10.9469 337.918 10.9469ZM348.207 3.37951V4.74506H343.433V3.37951H348.207ZM344.713 1.28567H346.414V9.55294C346.414 9.88294 346.464 10.1314 346.562 10.2983C346.661 10.4614 346.788 10.5733 346.944 10.634C347.103 10.6909 347.275 10.7193 347.461 10.7193C347.598 10.7193 347.717 10.7099 347.82 10.6909C347.922 10.6719 348.002 10.6568 348.059 10.6454L348.366 12.0508C348.267 12.0887 348.127 12.1266 347.945 12.1646C347.763 12.2063 347.535 12.229 347.262 12.2328C346.815 12.2404 346.397 12.1608 346.01 11.9939C345.624 11.827 345.311 11.569 345.072 11.22C344.833 10.8711 344.713 10.433 344.713 9.9057V1.28567ZM353.761 12.2954C352.9 12.2954 352.159 12.1114 351.537 11.7435C350.918 11.3718 350.44 10.8502 350.103 10.1788C349.769 9.50363 349.602 8.71274 349.602 7.80617C349.602 6.91098 349.769 6.12199 350.103 5.43922C350.44 4.75644 350.911 4.2235 351.514 3.84039C352.121 3.45727 352.83 3.26572 353.642 3.26572C354.135 3.26572 354.613 3.34727 355.076 3.51038C355.538 3.67349 355.954 3.92953 356.322 4.2785C356.69 4.62747 356.98 5.08076 357.192 5.63836C357.405 6.19217 357.511 6.86546 357.511 7.65824V8.26135H350.564V6.98684H355.844C355.844 6.53924 355.753 6.14286 355.571 5.79767C355.389 5.4487 355.133 5.17369 354.803 4.97265C354.476 4.77162 354.093 4.6711 353.653 4.6711C353.175 4.6711 352.758 4.78869 352.401 5.02386C352.049 5.25525 351.776 5.5587 351.582 5.93423C351.392 6.30596 351.298 6.70994 351.298 7.14616V8.14187C351.298 8.72602 351.4 9.22293 351.605 9.63259C351.814 10.0423 352.104 10.3552 352.475 10.5714C352.847 10.7838 353.281 10.89 353.778 10.89C354.101 10.89 354.395 10.8445 354.66 10.7535C354.926 10.6587 355.155 10.5183 355.349 10.3324C355.542 10.1466 355.69 9.91708 355.793 9.64397L357.403 9.93415C357.274 10.4083 357.042 10.8237 356.709 11.1802C356.379 11.533 355.963 11.808 355.463 12.0052C354.966 12.1987 354.399 12.2954 353.761 12.2954ZM362.67 12.2897C361.965 12.2897 361.335 12.1095 360.781 11.7492C360.231 11.385 359.799 10.8673 359.484 10.1959C359.173 9.52069 359.017 8.71085 359.017 7.76634C359.017 6.82184 359.175 6.01389 359.49 5.34249C359.808 4.6711 360.244 4.15712 360.798 3.80056C361.352 3.444 361.98 3.26572 362.681 3.26572C363.224 3.26572 363.66 3.35675 363.99 3.53883C364.324 3.71711 364.582 3.92573 364.764 4.1647C364.95 4.40368 365.094 4.6142 365.196 4.79627H365.299V0.46634H367V12.119H365.339V10.7592H365.196C365.094 10.945 364.946 11.1575 364.753 11.3964C364.563 11.6354 364.301 11.844 363.967 12.0223C363.634 12.2006 363.201 12.2897 362.67 12.2897ZM363.046 10.8388C363.535 10.8388 363.948 10.7099 364.286 10.4519C364.627 10.1902 364.885 9.82794 365.06 9.36517C365.238 8.9024 365.327 8.36377 365.327 7.74927C365.327 7.14236 365.24 6.61131 365.066 6.15613C364.891 5.70095 364.635 5.34628 364.297 5.09214C363.96 4.838 363.543 4.71092 363.046 4.71092C362.534 4.71092 362.107 4.84369 361.765 5.10921C361.424 5.37473 361.166 5.73698 360.992 6.19596C360.821 6.65494 360.736 7.17271 360.736 7.74927C360.736 8.33342 360.823 8.85878 360.997 9.32534C361.172 9.79191 361.43 10.1617 361.771 10.4349C362.116 10.7042 362.541 10.8388 363.046 10.8388Z" fill="#0D141C"/>
</svg>
