<svg width="100" height="16" viewBox="0 0 100 16" fill="none" xmlns="http://www.w3.org/2000/svg">
<path d="M5.25659 0.160637H6.67977V8.562C6.67977 9.31184 6.54205 9.94883 6.26659 10.473C5.99114 10.9971 5.60282 11.395 5.10165 11.6666C4.60047 11.9382 4.00939 12.074 3.32841 12.074C2.68568 12.074 2.11373 11.9574 1.61256 11.724C1.11138 11.4868 0.717332 11.1501 0.4304 10.714C0.143469 10.2778 2.82943e-06 9.75946 2.82943e-06 9.15881H1.40023C1.40023 9.49166 1.48248 9.78241 1.64699 10.0311C1.81532 10.2759 2.04487 10.4672 2.33563 10.6049C2.62638 10.7427 2.95731 10.8115 3.32841 10.8115C3.73777 10.8115 4.08591 10.7255 4.37284 10.5533C4.65977 10.3811 4.87784 10.1286 5.02705 9.7958C5.18008 9.45914 5.25659 9.04787 5.25659 8.562V0.160637ZM14.9032 8.3095V3.09882H16.2576V11.9134H14.9032V10.4213H14.8114C14.6048 10.8689 14.2835 11.2496 13.8473 11.5633C13.4112 11.8732 12.8603 12.0281 12.1946 12.0281C11.6437 12.0281 11.154 11.9076 10.7255 11.6666C10.297 11.4217 9.96036 11.0545 9.71551 10.5648C9.47066 10.0713 9.34824 9.44957 9.34824 8.69972V3.09882H10.7026V8.60791C10.7026 9.25063 10.8824 9.76328 11.242 10.1459C11.6054 10.5284 12.0683 10.7197 12.6307 10.7197C12.9674 10.7197 13.3098 10.6336 13.658 10.4615C14.0099 10.2893 14.3045 10.0253 14.5417 9.66955C14.7827 9.31376 14.9032 8.86041 14.9032 8.3095ZM20.0924 0.160637V11.9134H18.7381V0.160637H20.0924ZM23.4452 15.2188C23.2156 15.2188 23.011 15.1997 22.8312 15.1614C22.6513 15.127 22.527 15.0926 22.4581 15.0581L22.8025 13.8645C23.1315 13.9487 23.4222 13.9793 23.6747 13.9563C23.9272 13.9334 24.151 13.8205 24.3462 13.6177C24.5451 13.4188 24.7268 13.0955 24.8913 12.6479L25.1438 11.9593L21.8843 3.09882H23.3534L25.7866 10.1229H25.8784L28.3116 3.09882H29.7806L26.0391 13.1988C25.8707 13.6541 25.6622 14.0309 25.4135 14.3293C25.1649 14.6316 24.876 14.8554 24.547 15.0007C24.2218 15.1461 23.8545 15.2188 23.4452 15.2188ZM40.2221 0.160637V11.9134H38.7989V1.65268H38.73L35.8607 3.55791V2.11177L38.7989 0.160637H40.2221ZM47.4355 12.074C46.5709 12.074 45.8345 11.8388 45.2262 11.3682C44.6179 10.8938 44.153 10.2071 43.8317 9.30802C43.5103 8.40514 43.3496 7.3148 43.3496 6.037C43.3496 4.76685 43.5103 3.68224 43.8317 2.78319C44.1569 1.88031 44.6236 1.19168 45.2319 0.717284C45.844 0.239064 46.5786 -4.52709e-05 47.4355 -4.52709e-05C48.2925 -4.52709e-05 49.0251 0.239064 49.6334 0.717284C50.2456 1.19168 50.7123 1.88031 51.0337 2.78319C51.3589 3.68224 51.5215 4.76685 51.5215 6.037C51.5215 7.3148 51.3608 8.40514 51.0394 9.30802C50.718 10.2071 50.2532 10.8938 49.6449 11.3682C49.0366 11.8388 48.3002 12.074 47.4355 12.074ZM47.4355 10.8115C48.2925 10.8115 48.9582 10.3984 49.4326 9.572C49.907 8.74563 50.1442 7.5673 50.1442 6.037C50.1442 5.01935 50.0351 4.15281 49.8171 3.4374C49.6028 2.72198 49.293 2.17681 48.8874 1.80189C48.4857 1.42696 48.0018 1.2395 47.4355 1.2395C46.5862 1.2395 45.9225 1.65842 45.4442 2.49626C44.966 3.33027 44.7269 4.51052 44.7269 6.037C44.7269 7.05465 44.834 7.91927 45.0483 8.63086C45.2625 9.34245 45.5705 9.88379 45.9722 10.2549C46.3777 10.626 46.8655 10.8115 47.4355 10.8115ZM55.3348 10.3065L55.243 10.9263C55.1779 11.3624 55.0785 11.8292 54.9446 12.3265C54.8145 12.8239 54.6787 13.2925 54.5371 13.7325C54.3956 14.1725 54.2789 14.5225 54.1871 14.7827H53.1541C53.2038 14.5378 53.2689 14.2146 53.3492 13.8128C53.4296 13.4111 53.5099 12.9616 53.5902 12.4643C53.6744 11.9707 53.7433 11.4657 53.7968 10.9493L53.8657 10.3065H55.3348ZM62.366 11.9134V10.8804L66.2454 6.63382C66.7006 6.13647 67.0755 5.70416 67.3701 5.33688C67.6647 4.96579 67.8828 4.61764 68.0243 4.29245C68.1697 3.96344 68.2424 3.61912 68.2424 3.2595C68.2424 2.84632 68.1429 2.48861 67.944 2.18637C67.7489 1.88414 67.4811 1.65077 67.1406 1.48626C66.8001 1.32175 66.4175 1.2395 65.9929 1.2395C65.5414 1.2395 65.1474 1.33323 64.8107 1.52069C64.4779 1.70433 64.2196 1.96257 64.036 2.29541C63.8562 2.62825 63.7663 3.01848 63.7663 3.46609H62.4119C62.4119 2.77745 62.5707 2.17298 62.8883 1.65268C63.2058 1.13238 63.6381 0.726848 64.1852 0.436091C64.7361 0.145333 65.354 -4.52709e-05 66.0388 -4.52709e-05C66.7274 -4.52709e-05 67.3376 0.145333 67.8694 0.436091C68.4012 0.726848 68.8182 1.11899 69.1204 1.61251C69.4226 2.10603 69.5738 2.65503 69.5738 3.2595C69.5738 3.69181 69.4953 4.11456 69.3385 4.52774C69.1854 4.93709 68.9176 5.39427 68.5351 5.89927C68.1563 6.40044 67.6303 7.01257 66.9569 7.73563L64.3172 10.559V10.6509H69.7804V11.9134H62.366ZM75.9838 12.074C75.1192 12.074 74.3827 11.8388 73.7744 11.3682C73.1661 10.8938 72.7013 10.2071 72.38 9.30802C72.0586 8.40514 71.8979 7.3148 71.8979 6.037C71.8979 4.76685 72.0586 3.68224 72.38 2.78319C72.7051 1.88031 73.1719 1.19168 73.7802 0.717284C74.3923 0.239064 75.1268 -4.52709e-05 75.9838 -4.52709e-05C76.8408 -4.52709e-05 77.5734 0.239064 78.1817 0.717284C78.7938 1.19168 79.2606 1.88031 79.5819 2.78319C79.9071 3.68224 80.0697 4.76685 80.0697 6.037C80.0697 7.3148 79.909 8.40514 79.5877 9.30802C79.2663 10.2071 78.8015 10.8938 78.1932 11.3682C77.5849 11.8388 76.8484 12.074 75.9838 12.074ZM75.9838 10.8115C76.8408 10.8115 77.5065 10.3984 77.9809 9.572C78.4553 8.74563 78.6925 7.5673 78.6925 6.037C78.6925 5.01935 78.5834 4.15281 78.3653 3.4374C78.1511 2.72198 77.8412 2.17681 77.4357 1.80189C77.034 1.42696 76.55 1.2395 75.9838 1.2395C75.1345 1.2395 74.4707 1.65842 73.9925 2.49626C73.5143 3.33027 73.2752 4.51052 73.2752 6.037C73.2752 7.05465 73.3823 7.91927 73.5965 8.63086C73.8108 9.34245 74.1188 9.88379 74.5205 10.2549C74.926 10.626 75.4138 10.8115 75.9838 10.8115ZM82.2504 11.9134V10.8804L86.1297 6.63382C86.585 6.13647 86.9599 5.70416 87.2545 5.33688C87.5491 4.96579 87.7671 4.61764 87.9087 4.29245C88.0541 3.96344 88.1268 3.61912 88.1268 3.2595C88.1268 2.84632 88.0273 2.48861 87.8284 2.18637C87.6332 1.88414 87.3654 1.65077 87.0249 1.48626C86.6845 1.32175 86.3019 1.2395 85.8772 1.2395C85.4258 1.2395 85.0317 1.33323 84.6951 1.52069C84.3622 1.70433 84.104 1.96257 83.9203 2.29541C83.7405 2.62825 83.6506 3.01848 83.6506 3.46609H82.2963C82.2963 2.77745 82.4551 2.17298 82.7726 1.65268C83.0902 1.13238 83.5225 0.726848 84.0696 0.436091C84.6205 0.145333 85.2383 -4.52709e-05 85.9231 -4.52709e-05C86.6118 -4.52709e-05 87.222 0.145333 87.7538 0.436091C88.2855 0.726848 88.7025 1.11899 89.0048 1.61251C89.307 2.10603 89.4581 2.65503 89.4581 3.2595C89.4581 3.69181 89.3797 4.11456 89.2228 4.52774C89.0698 4.93709 88.802 5.39427 88.4194 5.89927C88.0407 6.40044 87.5146 7.01257 86.8413 7.73563L84.2015 10.559V10.6509H89.6647V11.9134H82.2504ZM91.5068 9.50313V8.33245L96.6716 0.160637H97.5209V1.97405H96.947L93.0448 8.14881V8.24063H100V9.50313H91.5068ZM97.0389 11.9134V9.14734V8.60217V0.160637H98.3932V11.9134H97.0389Z" fill="#4A739C"/>
</svg>
