<svg width="880" height="67" viewBox="0 0 880 67" fill="none" xmlns="http://www.w3.org/2000/svg">
<path d="M1.27841 30V18.3636H5.42614C6.33144 18.3636 7.08144 18.5284 7.67614 18.858C8.27083 19.1875 8.71591 19.6383 9.01136 20.2102C9.30682 20.7784 9.45455 21.4186 9.45455 22.1307C9.45455 22.8466 9.30492 23.4905 9.00568 24.0625C8.71023 24.6307 8.26326 25.0814 7.66477 25.4148C7.07008 25.7443 6.32197 25.9091 5.42045 25.9091H2.56818V24.4205H5.26136C5.83333 24.4205 6.29735 24.322 6.65341 24.125C7.00947 23.9242 7.27083 23.6515 7.4375 23.3068C7.60417 22.9621 7.6875 22.5701 7.6875 22.1307C7.6875 21.6913 7.60417 21.3011 7.4375 20.9602C7.27083 20.6193 7.00758 20.3523 6.64773 20.1591C6.29167 19.9659 5.82197 19.8693 5.23864 19.8693H3.03409V30H1.27841ZM11.3764 30V21.2727H13.0185V22.6591H13.1094C13.2685 22.1894 13.5488 21.8201 13.9503 21.5511C14.3556 21.2784 14.8139 21.142 15.3253 21.142C15.4313 21.142 15.5563 21.1458 15.7003 21.1534C15.848 21.161 15.9635 21.1705 16.0469 21.1818V22.8068C15.9787 22.7879 15.8575 22.767 15.6832 22.7443C15.509 22.7178 15.3348 22.7045 15.1605 22.7045C14.759 22.7045 14.401 22.7898 14.0866 22.9602C13.776 23.1269 13.5298 23.3598 13.348 23.6591C13.1662 23.9545 13.0753 24.2917 13.0753 24.6705V30H11.3764ZM20.8807 30.1761C20.0625 30.1761 19.3485 29.9886 18.7386 29.6136C18.1288 29.2386 17.6553 28.714 17.3182 28.0398C16.9811 27.3655 16.8125 26.5777 16.8125 25.6761C16.8125 24.7708 16.9811 23.9792 17.3182 23.3011C17.6553 22.6231 18.1288 22.0966 18.7386 21.7216C19.3485 21.3466 20.0625 21.1591 20.8807 21.1591C21.6989 21.1591 22.4129 21.3466 23.0227 21.7216C23.6326 22.0966 24.1061 22.6231 24.4432 23.3011C24.7803 23.9792 24.9489 24.7708 24.9489 25.6761C24.9489 26.5777 24.7803 27.3655 24.4432 28.0398C24.1061 28.714 23.6326 29.2386 23.0227 29.6136C22.4129 29.9886 21.6989 30.1761 20.8807 30.1761ZM20.8864 28.75C21.4167 28.75 21.8561 28.6098 22.2045 28.3295C22.553 28.0492 22.8106 27.6761 22.9773 27.2102C23.1477 26.7443 23.233 26.2311 23.233 25.6705C23.233 25.1136 23.1477 24.6023 22.9773 24.1364C22.8106 23.6667 22.553 23.2898 22.2045 23.0057C21.8561 22.7216 21.4167 22.5795 20.8864 22.5795C20.3523 22.5795 19.9091 22.7216 19.5568 23.0057C19.2083 23.2898 18.9489 23.6667 18.7784 24.1364C18.6117 24.6023 18.5284 25.1136 18.5284 25.6705C18.5284 26.2311 18.6117 26.7443 18.7784 27.2102C18.9489 27.6761 19.2083 28.0492 19.5568 28.3295C19.9091 28.6098 20.3523 28.75 20.8864 28.75ZM26.8452 21.2727H28.544V30.5682C28.544 31.1515 28.438 31.6439 28.2259 32.0455C28.0175 32.447 27.7069 32.7519 27.294 32.9602C26.8849 33.1686 26.3793 33.2727 25.777 33.2727C25.7164 33.2727 25.6596 33.2727 25.6065 33.2727C25.5497 33.2727 25.491 33.2708 25.4304 33.267V31.8068C25.4834 31.8068 25.5308 31.8068 25.5724 31.8068C25.6103 31.8068 25.6539 31.8068 25.7031 31.8068C26.1046 31.8068 26.3944 31.6989 26.5724 31.483C26.7543 31.2708 26.8452 30.9621 26.8452 30.5568V21.2727ZM27.6861 19.9261C27.3906 19.9261 27.1368 19.8277 26.9247 19.6307C26.7164 19.4299 26.6122 19.1913 26.6122 18.9148C26.6122 18.6345 26.7164 18.3958 26.9247 18.1989C27.1368 17.9981 27.3906 17.8977 27.6861 17.8977C27.9815 17.8977 28.2334 17.9981 28.4418 18.1989C28.6539 18.3958 28.7599 18.6345 28.7599 18.9148C28.7599 19.1913 28.6539 19.4299 28.4418 19.6307C28.2334 19.8277 27.9815 19.9261 27.6861 19.9261ZM34.5909 30.1761C33.7311 30.1761 32.9905 29.9924 32.3693 29.625C31.7519 29.2538 31.2746 28.733 30.9375 28.0625C30.6042 27.3883 30.4375 26.5985 30.4375 25.6932C30.4375 24.7992 30.6042 24.0114 30.9375 23.3295C31.2746 22.6477 31.7443 22.1155 32.3466 21.733C32.9527 21.3504 33.661 21.1591 34.4716 21.1591C34.964 21.1591 35.4413 21.2405 35.9034 21.4034C36.3655 21.5663 36.7803 21.822 37.1477 22.1705C37.5152 22.5189 37.8049 22.9716 38.017 23.5284C38.2292 24.0814 38.3352 24.7538 38.3352 25.5455V26.1477H31.3977V24.875H36.6705C36.6705 24.428 36.5795 24.0322 36.3977 23.6875C36.2159 23.339 35.9602 23.0644 35.6307 22.8636C35.3049 22.6629 34.9223 22.5625 34.483 22.5625C34.0057 22.5625 33.589 22.6799 33.233 22.9148C32.8807 23.1458 32.608 23.4489 32.4148 23.8239C32.2254 24.1951 32.1307 24.5985 32.1307 25.0341V26.0284C32.1307 26.6117 32.233 27.108 32.4375 27.517C32.6458 27.9261 32.9356 28.2386 33.3068 28.4545C33.678 28.6667 34.1117 28.7727 34.608 28.7727C34.9299 28.7727 35.2235 28.7273 35.4886 28.6364C35.7538 28.5417 35.983 28.4015 36.1761 28.2159C36.3693 28.0303 36.517 27.8011 36.6193 27.5284L38.2273 27.8182C38.0985 28.2917 37.8674 28.7064 37.5341 29.0625C37.2045 29.4148 36.7898 29.6894 36.2898 29.8864C35.7936 30.0795 35.2273 30.1761 34.5909 30.1761ZM43.8963 30.1761C43.0516 30.1761 42.3243 29.9848 41.7145 29.6023C41.1084 29.2159 40.6425 28.6837 40.3168 28.0057C39.991 27.3277 39.8281 26.5511 39.8281 25.6761C39.8281 24.7898 39.9948 24.0076 40.3281 23.3295C40.6615 22.6477 41.1312 22.1155 41.7372 21.733C42.3433 21.3504 43.0573 21.1591 43.8793 21.1591C44.5421 21.1591 45.133 21.2822 45.652 21.5284C46.1709 21.7708 46.5895 22.1117 46.9077 22.5511C47.2296 22.9905 47.4209 23.5038 47.4815 24.0909H45.8281C45.7372 23.6818 45.5289 23.3295 45.2031 23.0341C44.8812 22.7386 44.4493 22.5909 43.9077 22.5909C43.4342 22.5909 43.0194 22.7159 42.6634 22.9659C42.3111 23.2121 42.0365 23.5644 41.8395 24.0227C41.6425 24.4773 41.544 25.0152 41.544 25.6364C41.544 26.2727 41.6406 26.822 41.8338 27.2841C42.027 27.7462 42.2997 28.1042 42.652 28.358C43.008 28.6117 43.4266 28.7386 43.9077 28.7386C44.2296 28.7386 44.5213 28.6799 44.7827 28.5625C45.0478 28.4413 45.2694 28.2689 45.4474 28.0455C45.6293 27.822 45.7562 27.553 45.8281 27.2386H47.4815C47.4209 27.803 47.2372 28.3068 46.9304 28.75C46.6236 29.1932 46.2126 29.5417 45.6974 29.7955C45.1861 30.0492 44.5857 30.1761 43.8963 30.1761ZM53.3722 21.2727V22.6364H48.6051V21.2727H53.3722ZM49.8835 19.1818H51.5824V27.4375C51.5824 27.767 51.6316 28.0152 51.7301 28.1818C51.8286 28.3447 51.9555 28.4564 52.1108 28.517C52.2699 28.5739 52.4422 28.6023 52.6278 28.6023C52.7642 28.6023 52.8835 28.5928 52.9858 28.5739C53.0881 28.5549 53.1676 28.5398 53.2244 28.5284L53.5312 29.9318C53.4328 29.9697 53.2926 30.0076 53.1108 30.0455C52.929 30.0871 52.7017 30.1098 52.429 30.1136C51.982 30.1212 51.5653 30.0417 51.179 29.875C50.7926 29.7083 50.4801 29.4508 50.2415 29.1023C50.0028 28.7538 49.8835 28.3163 49.8835 27.7898V19.1818ZM60.7756 18.3636V22.5057H59.3665V18.3636H60.7756ZM63.1065 18.3636H65.2372L68.9418 27.4091H69.0781L72.7827 18.3636H74.9134V30H73.2429V21.5795H73.1349L69.7031 29.983H68.3168L64.8849 21.5739H64.777V30H63.1065V18.3636ZM81.0057 30.1761C80.1875 30.1761 79.4735 29.9886 78.8636 29.6136C78.2538 29.2386 77.7803 28.714 77.4432 28.0398C77.1061 27.3655 76.9375 26.5777 76.9375 25.6761C76.9375 24.7708 77.1061 23.9792 77.4432 23.3011C77.7803 22.6231 78.2538 22.0966 78.8636 21.7216C79.4735 21.3466 80.1875 21.1591 81.0057 21.1591C81.8239 21.1591 82.5379 21.3466 83.1477 21.7216C83.7576 22.0966 84.2311 22.6231 84.5682 23.3011C84.9053 23.9792 85.0739 24.7708 85.0739 25.6761C85.0739 26.5777 84.9053 27.3655 84.5682 28.0398C84.2311 28.714 83.7576 29.2386 83.1477 29.6136C82.5379 29.9886 81.8239 30.1761 81.0057 30.1761ZM81.0114 28.75C81.5417 28.75 81.9811 28.6098 82.3295 28.3295C82.678 28.0492 82.9356 27.6761 83.1023 27.2102C83.2727 26.7443 83.358 26.2311 83.358 25.6705C83.358 25.1136 83.2727 24.6023 83.1023 24.1364C82.9356 23.6667 82.678 23.2898 82.3295 23.0057C81.9811 22.7216 81.5417 22.5795 81.0114 22.5795C80.4773 22.5795 80.0341 22.7216 79.6818 23.0057C79.3333 23.2898 79.0739 23.6667 78.9034 24.1364C78.7367 24.6023 78.6534 25.1136 78.6534 25.6705C78.6534 26.2311 78.7367 26.7443 78.9034 27.2102C79.0739 27.6761 79.3333 28.0492 79.6818 28.3295C80.0341 28.6098 80.4773 28.75 81.0114 28.75ZM87.1065 30V18.3636H88.8054V22.6875H88.9077C89.0062 22.5057 89.1482 22.2955 89.3338 22.0568C89.5194 21.8182 89.777 21.6098 90.1065 21.4318C90.4361 21.25 90.8717 21.1591 91.4134 21.1591C92.1179 21.1591 92.7467 21.3371 93.2997 21.6932C93.8527 22.0492 94.2865 22.5625 94.6009 23.233C94.919 23.9034 95.0781 24.7102 95.0781 25.6534C95.0781 26.5966 94.9209 27.4053 94.6065 28.0795C94.2921 28.75 93.8603 29.267 93.3111 29.6307C92.7618 29.9905 92.1349 30.1705 91.4304 30.1705C90.9001 30.1705 90.4664 30.0814 90.1293 29.9034C89.7959 29.7254 89.5346 29.517 89.3452 29.2784C89.1558 29.0398 89.0099 28.8277 88.9077 28.642H88.7656V30H87.1065ZM88.7713 25.6364C88.7713 26.25 88.8603 26.7879 89.0384 27.25C89.2164 27.7121 89.474 28.0739 89.8111 28.3352C90.1482 28.5928 90.5611 28.7216 91.0497 28.7216C91.5573 28.7216 91.9815 28.5871 92.3224 28.3182C92.6634 28.0455 92.9209 27.6761 93.0952 27.2102C93.2732 26.7443 93.3622 26.2197 93.3622 25.6364C93.3622 25.0606 93.2751 24.5436 93.1009 24.0852C92.9304 23.6269 92.6728 23.2652 92.3281 23C91.9872 22.7348 91.5611 22.6023 91.0497 22.6023C90.5573 22.6023 90.1406 22.7292 89.7997 22.983C89.4626 23.2367 89.2069 23.5909 89.0327 24.0455C88.8584 24.5 88.7713 25.0303 88.7713 25.6364ZM96.9858 30V21.2727H98.6847V30H96.9858ZM97.8438 19.9261C97.5483 19.9261 97.2945 19.8277 97.0824 19.6307C96.8741 19.4299 96.7699 19.1913 96.7699 18.9148C96.7699 18.6345 96.8741 18.3958 97.0824 18.1989C97.2945 17.9981 97.5483 17.8977 97.8438 17.8977C98.1392 17.8977 98.3911 17.9981 98.5994 18.1989C98.8116 18.3958 98.9176 18.6345 98.9176 18.9148C98.9176 19.1913 98.8116 19.4299 98.5994 19.6307C98.3911 19.8277 98.1392 19.9261 97.8438 19.9261ZM102.669 18.3636V30H100.97V18.3636H102.669ZM108.716 30.1761C107.856 30.1761 107.116 29.9924 106.494 29.625C105.877 29.2538 105.4 28.733 105.062 28.0625C104.729 27.3883 104.562 26.5985 104.562 25.6932C104.562 24.7992 104.729 24.0114 105.062 23.3295C105.4 22.6477 105.869 22.1155 106.472 21.733C107.078 21.3504 107.786 21.1591 108.597 21.1591C109.089 21.1591 109.566 21.2405 110.028 21.4034C110.491 21.5663 110.905 21.822 111.273 22.1705C111.64 22.5189 111.93 22.9716 112.142 23.5284C112.354 24.0814 112.46 24.7538 112.46 25.5455V26.1477H105.523V24.875H110.795C110.795 24.428 110.705 24.0322 110.523 23.6875C110.341 23.339 110.085 23.0644 109.756 22.8636C109.43 22.6629 109.047 22.5625 108.608 22.5625C108.131 22.5625 107.714 22.6799 107.358 22.9148C107.006 23.1458 106.733 23.4489 106.54 23.8239C106.35 24.1951 106.256 24.5985 106.256 25.0341V26.0284C106.256 26.6117 106.358 27.108 106.562 27.517C106.771 27.9261 107.061 28.2386 107.432 28.4545C107.803 28.6667 108.237 28.7727 108.733 28.7727C109.055 28.7727 109.348 28.7273 109.614 28.6364C109.879 28.5417 110.108 28.4015 110.301 28.2159C110.494 28.0303 110.642 27.8011 110.744 27.5284L112.352 27.8182C112.223 28.2917 111.992 28.7064 111.659 29.0625C111.33 29.4148 110.915 29.6894 110.415 29.8864C109.919 30.0795 109.352 30.1761 108.716 30.1761ZM119.699 30H117.835L122.023 18.3636H124.051L128.239 30H126.375L123.085 20.4773H122.994L119.699 30ZM120.011 25.4432H126.057V26.9205H120.011V25.4432ZM129.783 33.2727V21.2727H131.442V22.6875H131.584C131.682 22.5057 131.824 22.2955 132.01 22.0568C132.196 21.8182 132.453 21.6098 132.783 21.4318C133.112 21.25 133.548 21.1591 134.089 21.1591C134.794 21.1591 135.423 21.3371 135.976 21.6932C136.529 22.0492 136.963 22.5625 137.277 23.233C137.595 23.9034 137.754 24.7102 137.754 25.6534C137.754 26.5966 137.597 27.4053 137.283 28.0795C136.968 28.75 136.536 29.267 135.987 29.6307C135.438 29.9905 134.811 30.1705 134.107 30.1705C133.576 30.1705 133.143 30.0814 132.805 29.9034C132.472 29.7254 132.211 29.517 132.021 29.2784C131.832 29.0398 131.686 28.8277 131.584 28.642H131.482V33.2727H129.783ZM131.447 25.6364C131.447 26.25 131.536 26.7879 131.714 27.25C131.893 27.7121 132.15 28.0739 132.487 28.3352C132.824 28.5928 133.237 28.7216 133.726 28.7216C134.233 28.7216 134.658 28.5871 134.999 28.3182C135.339 28.0455 135.597 27.6761 135.771 27.2102C135.949 26.7443 136.038 26.2197 136.038 25.6364C136.038 25.0606 135.951 24.5436 135.777 24.0852C135.607 23.6269 135.349 23.2652 135.004 23C134.663 22.7348 134.237 22.6023 133.726 22.6023C133.233 22.6023 132.817 22.7292 132.476 22.983C132.139 23.2367 131.883 23.5909 131.709 24.0455C131.535 24.5 131.447 25.0303 131.447 25.6364ZM139.658 33.2727V21.2727H141.317V22.6875H141.459C141.557 22.5057 141.699 22.2955 141.885 22.0568C142.071 21.8182 142.328 21.6098 142.658 21.4318C142.987 21.25 143.423 21.1591 143.964 21.1591C144.669 21.1591 145.298 21.3371 145.851 21.6932C146.404 22.0492 146.838 22.5625 147.152 23.233C147.47 23.9034 147.629 24.7102 147.629 25.6534C147.629 26.5966 147.472 27.4053 147.158 28.0795C146.843 28.75 146.411 29.267 145.862 29.6307C145.313 29.9905 144.686 30.1705 143.982 30.1705C143.451 30.1705 143.018 30.0814 142.68 29.9034C142.347 29.7254 142.086 29.517 141.896 29.2784C141.707 29.0398 141.561 28.8277 141.459 28.642H141.357V33.2727H139.658ZM141.322 25.6364C141.322 26.25 141.411 26.7879 141.589 27.25C141.768 27.7121 142.025 28.0739 142.362 28.3352C142.699 28.5928 143.112 28.7216 143.601 28.7216C144.108 28.7216 144.533 28.5871 144.874 28.3182C145.214 28.0455 145.472 27.6761 145.646 27.2102C145.824 26.7443 145.913 26.2197 145.913 25.6364C145.913 25.0606 145.826 24.5436 145.652 24.0852C145.482 23.6269 145.224 23.2652 144.879 23C144.538 22.7348 144.112 22.6023 143.601 22.6023C143.108 22.6023 142.692 22.7292 142.351 22.983C142.014 23.2367 141.758 23.5909 141.584 24.0455C141.41 24.5 141.322 25.0303 141.322 25.6364ZM151.232 18.3636V30H149.533V18.3636H151.232ZM153.517 30V21.2727H155.216V30H153.517ZM154.375 19.9261C154.08 19.9261 153.826 19.8277 153.614 19.6307C153.405 19.4299 153.301 19.1913 153.301 18.9148C153.301 18.6345 153.405 18.3958 153.614 18.1989C153.826 17.9981 154.08 17.8977 154.375 17.8977C154.67 17.8977 154.922 17.9981 155.131 18.1989C155.343 18.3958 155.449 18.6345 155.449 18.9148C155.449 19.1913 155.343 19.4299 155.131 19.6307C154.922 19.8277 154.67 19.9261 154.375 19.9261ZM161.178 30.1761C160.333 30.1761 159.606 29.9848 158.996 29.6023C158.39 29.2159 157.924 28.6837 157.598 28.0057C157.272 27.3277 157.109 26.5511 157.109 25.6761C157.109 24.7898 157.276 24.0076 157.609 23.3295C157.943 22.6477 158.412 22.1155 159.018 21.733C159.625 21.3504 160.339 21.1591 161.161 21.1591C161.823 21.1591 162.414 21.2822 162.933 21.5284C163.452 21.7708 163.871 22.1117 164.189 22.5511C164.511 22.9905 164.702 23.5038 164.763 24.0909H163.109C163.018 23.6818 162.81 23.3295 162.484 23.0341C162.162 22.7386 161.731 22.5909 161.189 22.5909C160.715 22.5909 160.301 22.7159 159.945 22.9659C159.592 23.2121 159.318 23.5644 159.121 24.0227C158.924 24.4773 158.825 25.0152 158.825 25.6364C158.825 26.2727 158.922 26.822 159.115 27.2841C159.308 27.7462 159.581 28.1042 159.933 28.358C160.289 28.6117 160.708 28.7386 161.189 28.7386C161.511 28.7386 161.803 28.6799 162.064 28.5625C162.329 28.4413 162.551 28.2689 162.729 28.0455C162.911 27.822 163.037 27.553 163.109 27.2386H164.763C164.702 27.803 164.518 28.3068 164.212 28.75C163.905 29.1932 163.494 29.5417 162.979 29.7955C162.467 30.0492 161.867 30.1761 161.178 30.1761ZM169.119 30.1932C168.566 30.1932 168.066 30.0909 167.619 29.8864C167.172 29.678 166.818 29.3769 166.557 28.983C166.299 28.589 166.17 28.1061 166.17 27.5341C166.17 27.0417 166.265 26.6364 166.455 26.3182C166.644 26 166.9 25.7481 167.222 25.5625C167.544 25.3769 167.903 25.2367 168.301 25.142C168.699 25.0473 169.104 24.9754 169.517 24.9261C170.04 24.8655 170.464 24.8163 170.79 24.7784C171.116 24.7367 171.352 24.6705 171.5 24.5795C171.648 24.4886 171.722 24.3409 171.722 24.1364V24.0966C171.722 23.6004 171.581 23.2159 171.301 22.9432C171.025 22.6705 170.612 22.5341 170.062 22.5341C169.491 22.5341 169.04 22.661 168.71 22.9148C168.384 23.1648 168.159 23.4432 168.034 23.75L166.438 23.3864C166.627 22.8561 166.903 22.428 167.267 22.1023C167.634 21.7727 168.057 21.5341 168.534 21.3864C169.011 21.2348 169.513 21.1591 170.04 21.1591C170.388 21.1591 170.758 21.2008 171.148 21.2841C171.542 21.3636 171.909 21.5114 172.25 21.7273C172.595 21.9432 172.877 22.2519 173.097 22.6534C173.316 23.0511 173.426 23.5682 173.426 24.2045V30H171.767V28.8068H171.699C171.589 29.0265 171.424 29.2424 171.205 29.4545C170.985 29.6667 170.703 29.8428 170.358 29.983C170.013 30.1231 169.6 30.1932 169.119 30.1932ZM169.489 28.8295C169.958 28.8295 170.36 28.7367 170.693 28.5511C171.03 28.3655 171.286 28.1231 171.46 27.8239C171.638 27.5208 171.727 27.197 171.727 26.8523V25.7273C171.667 25.7879 171.549 25.8447 171.375 25.8977C171.205 25.947 171.009 25.9905 170.79 26.0284C170.57 26.0625 170.356 26.0947 170.148 26.125C169.939 26.1515 169.765 26.1742 169.625 26.1932C169.295 26.2348 168.994 26.3049 168.722 26.4034C168.453 26.5019 168.237 26.6439 168.074 26.8295C167.915 27.0114 167.835 27.2538 167.835 27.5568C167.835 27.9773 167.991 28.2955 168.301 28.5114C168.612 28.7235 169.008 28.8295 169.489 28.8295ZM179.763 21.2727V22.6364H174.996V21.2727H179.763ZM176.274 19.1818H177.973V27.4375C177.973 27.767 178.022 28.0152 178.121 28.1818C178.219 28.3447 178.346 28.4564 178.501 28.517C178.661 28.5739 178.833 28.6023 179.018 28.6023C179.155 28.6023 179.274 28.5928 179.376 28.5739C179.479 28.5549 179.558 28.5398 179.615 28.5284L179.922 29.9318C179.823 29.9697 179.683 30.0076 179.501 30.0455C179.32 30.0871 179.092 30.1098 178.82 30.1136C178.373 30.1212 177.956 30.0417 177.57 29.875C177.183 29.7083 176.871 29.4508 176.632 29.1023C176.393 28.7538 176.274 28.3163 176.274 27.7898V19.1818ZM181.642 30V21.2727H183.341V30H181.642ZM182.5 19.9261C182.205 19.9261 181.951 19.8277 181.739 19.6307C181.53 19.4299 181.426 19.1913 181.426 18.9148C181.426 18.6345 181.53 18.3958 181.739 18.1989C181.951 17.9981 182.205 17.8977 182.5 17.8977C182.795 17.8977 183.047 17.9981 183.256 18.1989C183.468 18.3958 183.574 18.6345 183.574 18.9148C183.574 19.1913 183.468 19.4299 183.256 19.6307C183.047 19.8277 182.795 19.9261 182.5 19.9261ZM189.303 30.1761C188.484 30.1761 187.77 29.9886 187.161 29.6136C186.551 29.2386 186.077 28.714 185.74 28.0398C185.403 27.3655 185.234 26.5777 185.234 25.6761C185.234 24.7708 185.403 23.9792 185.74 23.3011C186.077 22.6231 186.551 22.0966 187.161 21.7216C187.77 21.3466 188.484 21.1591 189.303 21.1591C190.121 21.1591 190.835 21.3466 191.445 21.7216C192.054 22.0966 192.528 22.6231 192.865 23.3011C193.202 23.9792 193.371 24.7708 193.371 25.6761C193.371 26.5777 193.202 27.3655 192.865 28.0398C192.528 28.714 192.054 29.2386 191.445 29.6136C190.835 29.9886 190.121 30.1761 189.303 30.1761ZM189.308 28.75C189.839 28.75 190.278 28.6098 190.626 28.3295C190.975 28.0492 191.232 27.6761 191.399 27.2102C191.57 26.7443 191.655 26.2311 191.655 25.6705C191.655 25.1136 191.57 24.6023 191.399 24.1364C191.232 23.6667 190.975 23.2898 190.626 23.0057C190.278 22.7216 189.839 22.5795 189.308 22.5795C188.774 22.5795 188.331 22.7216 187.979 23.0057C187.63 23.2898 187.371 23.6667 187.2 24.1364C187.034 24.6023 186.95 25.1136 186.95 25.6705C186.95 26.2311 187.034 26.7443 187.2 27.2102C187.371 27.6761 187.63 28.0492 187.979 28.3295C188.331 28.6098 188.774 28.75 189.308 28.75ZM196.966 24.8182V30H195.267V21.2727H196.898V22.6932H197.006C197.206 22.2311 197.521 21.8598 197.949 21.5795C198.381 21.2992 198.924 21.1591 199.58 21.1591C200.174 21.1591 200.695 21.2841 201.142 21.5341C201.589 21.7803 201.936 22.1477 202.182 22.6364C202.428 23.125 202.551 23.7292 202.551 24.4489V30H200.852V24.6534C200.852 24.0208 200.688 23.5265 200.358 23.1705C200.028 22.8106 199.576 22.6307 199 22.6307C198.606 22.6307 198.256 22.7159 197.949 22.8864C197.646 23.0568 197.405 23.3068 197.227 23.6364C197.053 23.9621 196.966 24.3561 196.966 24.8182ZM210.183 30H208.32L212.507 18.3636H214.536L218.723 30H216.859L213.57 20.4773H213.479L210.183 30ZM210.496 25.4432H216.541V26.9205H210.496V25.4432ZM220.267 30V21.2727H221.909V22.6591H222C222.159 22.1894 222.439 21.8201 222.841 21.5511C223.246 21.2784 223.705 21.142 224.216 21.142C224.322 21.142 224.447 21.1458 224.591 21.1534C224.739 21.161 224.854 21.1705 224.938 21.1818V22.8068C224.869 22.7879 224.748 22.767 224.574 22.7443C224.4 22.7178 224.225 22.7045 224.051 22.7045C223.65 22.7045 223.292 22.7898 222.977 22.9602C222.667 23.1269 222.42 23.3598 222.239 23.6591C222.057 23.9545 221.966 24.2917 221.966 24.6705V30H220.267ZM229.771 30.1761C228.927 30.1761 228.199 29.9848 227.589 29.6023C226.983 29.2159 226.518 28.6837 226.192 28.0057C225.866 27.3277 225.703 26.5511 225.703 25.6761C225.703 24.7898 225.87 24.0076 226.203 23.3295C226.536 22.6477 227.006 22.1155 227.612 21.733C228.218 21.3504 228.932 21.1591 229.754 21.1591C230.417 21.1591 231.008 21.2822 231.527 21.5284C232.046 21.7708 232.464 22.1117 232.783 22.5511C233.105 22.9905 233.296 23.5038 233.357 24.0909H231.703C231.612 23.6818 231.404 23.3295 231.078 23.0341C230.756 22.7386 230.324 22.5909 229.783 22.5909C229.309 22.5909 228.894 22.7159 228.538 22.9659C228.186 23.2121 227.911 23.5644 227.714 24.0227C227.518 24.4773 227.419 25.0152 227.419 25.6364C227.419 26.2727 227.516 26.822 227.709 27.2841C227.902 27.7462 228.175 28.1042 228.527 28.358C228.883 28.6117 229.302 28.7386 229.783 28.7386C230.105 28.7386 230.396 28.6799 230.658 28.5625C230.923 28.4413 231.144 28.2689 231.322 28.0455C231.504 27.822 231.631 27.553 231.703 27.2386H233.357C233.296 27.803 233.112 28.3068 232.805 28.75C232.499 29.1932 232.088 29.5417 231.572 29.7955C231.061 30.0492 230.461 30.1761 229.771 30.1761ZM236.872 24.8182V30H235.173V18.3636H236.849V22.6932H236.957C237.162 22.2235 237.474 21.8504 237.895 21.5739C238.315 21.2973 238.865 21.1591 239.543 21.1591C240.141 21.1591 240.664 21.2822 241.111 21.5284C241.562 21.7746 241.91 22.142 242.156 22.6307C242.406 23.1155 242.531 23.7216 242.531 24.4489V30H240.832V24.6534C240.832 24.0133 240.668 23.517 240.338 23.1648C240.009 22.8087 239.55 22.6307 238.963 22.6307C238.562 22.6307 238.202 22.7159 237.884 22.8864C237.569 23.0568 237.321 23.3068 237.139 23.6364C236.961 23.9621 236.872 24.3561 236.872 24.8182ZM244.798 30V21.2727H246.497V30H244.798ZM245.656 19.9261C245.361 19.9261 245.107 19.8277 244.895 19.6307C244.687 19.4299 244.582 19.1913 244.582 18.9148C244.582 18.6345 244.687 18.3958 244.895 18.1989C245.107 17.9981 245.361 17.8977 245.656 17.8977C245.952 17.8977 246.204 17.9981 246.412 18.1989C246.624 18.3958 246.73 18.6345 246.73 18.9148C246.73 19.1913 246.624 19.4299 246.412 19.6307C246.204 19.8277 245.952 19.9261 245.656 19.9261ZM252.857 21.2727V22.6364H248.089V21.2727H252.857ZM249.368 19.1818H251.067V27.4375C251.067 27.767 251.116 28.0152 251.214 28.1818C251.313 28.3447 251.44 28.4564 251.595 28.517C251.754 28.5739 251.927 28.6023 252.112 28.6023C252.249 28.6023 252.368 28.5928 252.47 28.5739C252.572 28.5549 252.652 28.5398 252.709 28.5284L253.016 29.9318C252.917 29.9697 252.777 30.0076 252.595 30.0455C252.413 30.0871 252.186 30.1098 251.913 30.1136C251.466 30.1212 251.05 30.0417 250.663 29.875C250.277 29.7083 249.964 29.4508 249.726 29.1023C249.487 28.7538 249.368 28.3163 249.368 27.7898V19.1818ZM258.403 30.1761C257.544 30.1761 256.803 29.9924 256.182 29.625C255.564 29.2538 255.087 28.733 254.75 28.0625C254.417 27.3883 254.25 26.5985 254.25 25.6932C254.25 24.7992 254.417 24.0114 254.75 23.3295C255.087 22.6477 255.557 22.1155 256.159 21.733C256.765 21.3504 257.473 21.1591 258.284 21.1591C258.777 21.1591 259.254 21.2405 259.716 21.4034C260.178 21.5663 260.593 21.822 260.96 22.1705C261.328 22.5189 261.617 22.9716 261.83 23.5284C262.042 24.0814 262.148 24.7538 262.148 25.5455V26.1477H255.21V24.875H260.483C260.483 24.428 260.392 24.0322 260.21 23.6875C260.028 23.339 259.773 23.0644 259.443 22.8636C259.117 22.6629 258.735 22.5625 258.295 22.5625C257.818 22.5625 257.402 22.6799 257.045 22.9148C256.693 23.1458 256.42 23.4489 256.227 23.8239C256.038 24.1951 255.943 24.5985 255.943 25.0341V26.0284C255.943 26.6117 256.045 27.108 256.25 27.517C256.458 27.9261 256.748 28.2386 257.119 28.4545C257.491 28.6667 257.924 28.7727 258.42 28.7727C258.742 28.7727 259.036 28.7273 259.301 28.6364C259.566 28.5417 259.795 28.4015 259.989 28.2159C260.182 28.0303 260.33 27.8011 260.432 27.5284L262.04 27.8182C261.911 28.2917 261.68 28.7064 261.347 29.0625C261.017 29.4148 260.602 29.6894 260.102 29.8864C259.606 30.0795 259.04 30.1761 258.403 30.1761ZM267.709 30.1761C266.864 30.1761 266.137 29.9848 265.527 29.6023C264.921 29.2159 264.455 28.6837 264.129 28.0057C263.804 27.3277 263.641 26.5511 263.641 25.6761C263.641 24.7898 263.807 24.0076 264.141 23.3295C264.474 22.6477 264.944 22.1155 265.55 21.733C266.156 21.3504 266.87 21.1591 267.692 21.1591C268.355 21.1591 268.946 21.2822 269.464 21.5284C269.983 21.7708 270.402 22.1117 270.72 22.5511C271.042 22.9905 271.233 23.5038 271.294 24.0909H269.641C269.55 23.6818 269.341 23.3295 269.016 23.0341C268.694 22.7386 268.262 22.5909 267.72 22.5909C267.247 22.5909 266.832 22.7159 266.476 22.9659C266.124 23.2121 265.849 23.5644 265.652 24.0227C265.455 24.4773 265.357 25.0152 265.357 25.6364C265.357 26.2727 265.453 26.822 265.646 27.2841C265.839 27.7462 266.112 28.1042 266.464 28.358C266.821 28.6117 267.239 28.7386 267.72 28.7386C268.042 28.7386 268.334 28.6799 268.595 28.5625C268.86 28.4413 269.082 28.2689 269.26 28.0455C269.442 27.822 269.569 27.553 269.641 27.2386H271.294C271.233 27.803 271.05 28.3068 270.743 28.75C270.436 29.1932 270.025 29.5417 269.51 29.7955C268.999 30.0492 268.398 30.1761 267.709 30.1761ZM277.185 21.2727V22.6364H272.418V21.2727H277.185ZM273.696 19.1818H275.395V27.4375C275.395 27.767 275.444 28.0152 275.543 28.1818C275.641 28.3447 275.768 28.4564 275.923 28.517C276.082 28.5739 276.255 28.6023 276.44 28.6023C276.577 28.6023 276.696 28.5928 276.798 28.5739C276.901 28.5549 276.98 28.5398 277.037 28.5284L277.344 29.9318C277.245 29.9697 277.105 30.0076 276.923 30.0455C276.741 30.0871 276.514 30.1098 276.241 30.1136C275.795 30.1212 275.378 30.0417 274.991 29.875C274.605 29.7083 274.293 29.4508 274.054 29.1023C273.815 28.7538 273.696 28.3163 273.696 27.7898V19.1818ZM284.592 26.3807V21.2727H286.297V30H284.626V28.4886H284.536C284.335 28.9545 284.013 29.3428 283.57 29.6534C283.13 29.9602 282.583 30.1136 281.928 30.1136C281.367 30.1136 280.871 29.9905 280.439 29.7443C280.011 29.4943 279.674 29.125 279.428 28.6364C279.185 28.1477 279.064 27.5436 279.064 26.8239V21.2727H280.763V26.6193C280.763 27.214 280.928 27.6875 281.257 28.0398C281.587 28.392 282.015 28.5682 282.541 28.5682C282.859 28.5682 283.176 28.4886 283.49 28.3295C283.808 28.1705 284.071 27.9299 284.28 27.608C284.492 27.286 284.596 26.8769 284.592 26.3807ZM288.58 30V21.2727H290.222V22.6591H290.312C290.472 22.1894 290.752 21.8201 291.153 21.5511C291.559 21.2784 292.017 21.142 292.528 21.142C292.634 21.142 292.759 21.1458 292.903 21.1534C293.051 21.161 293.167 21.1705 293.25 21.1818V22.8068C293.182 22.7879 293.061 22.767 292.886 22.7443C292.712 22.7178 292.538 22.7045 292.364 22.7045C291.962 22.7045 291.604 22.7898 291.29 22.9602C290.979 23.1269 290.733 23.3598 290.551 23.6591C290.369 23.9545 290.278 24.2917 290.278 24.6705V30H288.58ZM298.169 30.1761C297.309 30.1761 296.569 29.9924 295.947 29.625C295.33 29.2538 294.853 28.733 294.516 28.0625C294.182 27.3883 294.016 26.5985 294.016 25.6932C294.016 24.7992 294.182 24.0114 294.516 23.3295C294.853 22.6477 295.322 22.1155 295.925 21.733C296.531 21.3504 297.239 21.1591 298.05 21.1591C298.542 21.1591 299.019 21.2405 299.482 21.4034C299.944 21.5663 300.358 21.822 300.726 22.1705C301.093 22.5189 301.383 22.9716 301.595 23.5284C301.807 24.0814 301.913 24.7538 301.913 25.5455V26.1477H294.976V24.875H300.249C300.249 24.428 300.158 24.0322 299.976 23.6875C299.794 23.339 299.538 23.0644 299.209 22.8636C298.883 22.6629 298.5 22.5625 298.061 22.5625C297.584 22.5625 297.167 22.6799 296.811 22.9148C296.459 23.1458 296.186 23.4489 295.993 23.8239C295.804 24.1951 295.709 24.5985 295.709 25.0341V26.0284C295.709 26.6117 295.811 27.108 296.016 27.517C296.224 27.9261 296.514 28.2386 296.885 28.4545C297.256 28.6667 297.69 28.7727 298.186 28.7727C298.508 28.7727 298.802 28.7273 299.067 28.6364C299.332 28.5417 299.561 28.4015 299.754 28.2159C299.947 28.0303 300.095 27.8011 300.197 27.5284L301.805 27.8182C301.677 28.2917 301.446 28.7064 301.112 29.0625C300.783 29.4148 300.368 29.6894 299.868 29.8864C299.372 30.0795 298.805 30.1761 298.169 30.1761ZM305.088 18.3636V22.5057H303.679V18.3636H305.088ZM315.193 30.1761C314.348 30.1761 313.621 29.9848 313.011 29.6023C312.405 29.2159 311.939 28.6837 311.614 28.0057C311.288 27.3277 311.125 26.5511 311.125 25.6761C311.125 24.7898 311.292 24.0076 311.625 23.3295C311.958 22.6477 312.428 22.1155 313.034 21.733C313.64 21.3504 314.354 21.1591 315.176 21.1591C315.839 21.1591 316.43 21.2822 316.949 21.5284C317.468 21.7708 317.886 22.1117 318.205 22.5511C318.527 22.9905 318.718 23.5038 318.778 24.0909H317.125C317.034 23.6818 316.826 23.3295 316.5 23.0341C316.178 22.7386 315.746 22.5909 315.205 22.5909C314.731 22.5909 314.316 22.7159 313.96 22.9659C313.608 23.2121 313.333 23.5644 313.136 24.0227C312.939 24.4773 312.841 25.0152 312.841 25.6364C312.841 26.2727 312.938 26.822 313.131 27.2841C313.324 27.7462 313.597 28.1042 313.949 28.358C314.305 28.6117 314.723 28.7386 315.205 28.7386C315.527 28.7386 315.818 28.6799 316.08 28.5625C316.345 28.4413 316.566 28.2689 316.744 28.0455C316.926 27.822 317.053 27.553 317.125 27.2386H318.778C318.718 27.803 318.534 28.3068 318.227 28.75C317.92 29.1932 317.509 29.5417 316.994 29.7955C316.483 30.0492 315.883 30.1761 315.193 30.1761ZM320.595 30V21.2727H322.237V22.6591H322.328C322.487 22.1894 322.768 21.8201 323.169 21.5511C323.574 21.2784 324.033 21.142 324.544 21.142C324.65 21.142 324.775 21.1458 324.919 21.1534C325.067 21.161 325.182 21.1705 325.266 21.1818V22.8068C325.197 22.7879 325.076 22.767 324.902 22.7443C324.728 22.7178 324.554 22.7045 324.379 22.7045C323.978 22.7045 323.62 22.7898 323.305 22.9602C322.995 23.1269 322.749 23.3598 322.567 23.6591C322.385 23.9545 322.294 24.2917 322.294 24.6705V30H320.595ZM330.185 30.1761C329.325 30.1761 328.584 29.9924 327.963 29.625C327.346 29.2538 326.868 28.733 326.531 28.0625C326.198 27.3883 326.031 26.5985 326.031 25.6932C326.031 24.7992 326.198 24.0114 326.531 23.3295C326.868 22.6477 327.338 22.1155 327.94 21.733C328.546 21.3504 329.255 21.1591 330.065 21.1591C330.558 21.1591 331.035 21.2405 331.497 21.4034C331.959 21.5663 332.374 21.822 332.741 22.1705C333.109 22.5189 333.399 22.9716 333.611 23.5284C333.823 24.0814 333.929 24.7538 333.929 25.5455V26.1477H326.991V24.875H332.264C332.264 24.428 332.173 24.0322 331.991 23.6875C331.81 23.339 331.554 23.0644 331.224 22.8636C330.899 22.6629 330.516 22.5625 330.077 22.5625C329.599 22.5625 329.183 22.6799 328.827 22.9148C328.474 23.1458 328.202 23.4489 328.009 23.8239C327.819 24.1951 327.724 24.5985 327.724 25.0341V26.0284C327.724 26.6117 327.827 27.108 328.031 27.517C328.24 27.9261 328.529 28.2386 328.901 28.4545C329.272 28.6667 329.705 28.7727 330.202 28.7727C330.524 28.7727 330.817 28.7273 331.082 28.6364C331.348 28.5417 331.577 28.4015 331.77 28.2159C331.963 28.0303 332.111 27.8011 332.213 27.5284L333.821 27.8182C333.692 28.2917 333.461 28.7064 333.128 29.0625C332.798 29.4148 332.384 29.6894 331.884 29.8864C331.387 30.0795 330.821 30.1761 330.185 30.1761ZM338.354 30.1932C337.801 30.1932 337.301 30.0909 336.854 29.8864C336.407 29.678 336.053 29.3769 335.791 28.983C335.534 28.589 335.405 28.1061 335.405 27.5341C335.405 27.0417 335.5 26.6364 335.689 26.3182C335.878 26 336.134 25.7481 336.456 25.5625C336.778 25.3769 337.138 25.2367 337.536 25.142C337.933 25.0473 338.339 24.9754 338.751 24.9261C339.274 24.8655 339.698 24.8163 340.024 24.7784C340.35 24.7367 340.587 24.6705 340.734 24.5795C340.882 24.4886 340.956 24.3409 340.956 24.1364V24.0966C340.956 23.6004 340.816 23.2159 340.536 22.9432C340.259 22.6705 339.846 22.5341 339.297 22.5341C338.725 22.5341 338.274 22.661 337.945 22.9148C337.619 23.1648 337.393 23.4432 337.268 23.75L335.672 23.3864C335.861 22.8561 336.138 22.428 336.501 22.1023C336.869 21.7727 337.291 21.5341 337.768 21.3864C338.246 21.2348 338.748 21.1591 339.274 21.1591C339.623 21.1591 339.992 21.2008 340.382 21.2841C340.776 21.3636 341.143 21.5114 341.484 21.7273C341.829 21.9432 342.111 22.2519 342.331 22.6534C342.551 23.0511 342.661 23.5682 342.661 24.2045V30H341.001V28.8068H340.933C340.823 29.0265 340.659 29.2424 340.439 29.4545C340.219 29.6667 339.937 29.8428 339.592 29.983C339.248 30.1231 338.835 30.1932 338.354 30.1932ZM338.723 28.8295C339.193 28.8295 339.594 28.7367 339.928 28.5511C340.265 28.3655 340.52 28.1231 340.695 27.8239C340.873 27.5208 340.962 27.197 340.962 26.8523V25.7273C340.901 25.7879 340.784 25.8447 340.609 25.8977C340.439 25.947 340.244 25.9905 340.024 26.0284C339.804 26.0625 339.59 26.0947 339.382 26.125C339.174 26.1515 339 26.1742 338.859 26.1932C338.53 26.2348 338.229 26.3049 337.956 26.4034C337.687 26.5019 337.471 26.6439 337.308 26.8295C337.149 27.0114 337.07 27.2538 337.07 27.5568C337.07 27.9773 337.225 28.2955 337.536 28.5114C337.846 28.7235 338.242 28.8295 338.723 28.8295ZM348.997 21.2727V22.6364H344.23V21.2727H348.997ZM345.509 19.1818H347.207V27.4375C347.207 27.767 347.257 28.0152 347.355 28.1818C347.454 28.3447 347.58 28.4564 347.736 28.517C347.895 28.5739 348.067 28.6023 348.253 28.6023C348.389 28.6023 348.509 28.5928 348.611 28.5739C348.713 28.5549 348.793 28.5398 348.849 28.5284L349.156 29.9318C349.058 29.9697 348.918 30.0076 348.736 30.0455C348.554 30.0871 348.327 30.1098 348.054 30.1136C347.607 30.1212 347.19 30.0417 346.804 29.875C346.418 29.7083 346.105 29.4508 345.866 29.1023C345.628 28.7538 345.509 28.3163 345.509 27.7898V19.1818ZM354.544 30.1761C353.684 30.1761 352.944 29.9924 352.322 29.625C351.705 29.2538 351.228 28.733 350.891 28.0625C350.557 27.3883 350.391 26.5985 350.391 25.6932C350.391 24.7992 350.557 24.0114 350.891 23.3295C351.228 22.6477 351.697 22.1155 352.3 21.733C352.906 21.3504 353.614 21.1591 354.425 21.1591C354.917 21.1591 355.394 21.2405 355.857 21.4034C356.319 21.5663 356.733 21.822 357.101 22.1705C357.468 22.5189 357.758 22.9716 357.97 23.5284C358.182 24.0814 358.288 24.7538 358.288 25.5455V26.1477H351.351V24.875H356.624C356.624 24.428 356.533 24.0322 356.351 23.6875C356.169 23.339 355.913 23.0644 355.584 22.8636C355.258 22.6629 354.875 22.5625 354.436 22.5625C353.959 22.5625 353.542 22.6799 353.186 22.9148C352.834 23.1458 352.561 23.4489 352.368 23.8239C352.179 24.1951 352.084 24.5985 352.084 25.0341V26.0284C352.084 26.6117 352.186 27.108 352.391 27.517C352.599 27.9261 352.889 28.2386 353.26 28.4545C353.631 28.6667 354.065 28.7727 354.561 28.7727C354.883 28.7727 355.177 28.7273 355.442 28.6364C355.707 28.5417 355.936 28.4015 356.129 28.2159C356.322 28.0303 356.47 27.8011 356.572 27.5284L358.18 27.8182C358.052 28.2917 357.821 28.7064 357.487 29.0625C357.158 29.4148 356.743 29.6894 356.243 29.8864C355.747 30.0795 355.18 30.1761 354.544 30.1761ZM363.44 30.1705C362.736 30.1705 362.107 29.9905 361.554 29.6307C361.005 29.267 360.573 28.75 360.259 28.0795C359.948 27.4053 359.793 26.5966 359.793 25.6534C359.793 24.7102 359.95 23.9034 360.264 23.233C360.582 22.5625 361.018 22.0492 361.571 21.6932C362.124 21.3371 362.751 21.1591 363.452 21.1591C363.993 21.1591 364.429 21.25 364.759 21.4318C365.092 21.6098 365.349 21.8182 365.531 22.0568C365.717 22.2955 365.861 22.5057 365.963 22.6875H366.065V18.3636H367.764V30H366.105V28.642H365.963C365.861 28.8277 365.713 29.0398 365.52 29.2784C365.33 29.517 365.069 29.7254 364.736 29.9034C364.402 30.0814 363.971 30.1705 363.44 30.1705ZM363.815 28.7216C364.304 28.7216 364.717 28.5928 365.054 28.3352C365.395 28.0739 365.652 27.7121 365.827 27.25C366.005 26.7879 366.094 26.25 366.094 25.6364C366.094 25.0303 366.007 24.5 365.832 24.0455C365.658 23.5909 365.402 23.2367 365.065 22.983C364.728 22.7292 364.312 22.6023 363.815 22.6023C363.304 22.6023 362.878 22.7348 362.537 23C362.196 23.2652 361.938 23.6269 361.764 24.0852C361.594 24.5436 361.509 25.0606 361.509 25.6364C361.509 26.2197 361.596 26.7443 361.77 27.2102C361.944 27.6761 362.202 28.0455 362.543 28.3182C362.887 28.5871 363.312 28.7216 363.815 28.7216Z" fill="#0D141C"/>
<path d="M5.86364 42.3636H7.27273V50.6818C7.27273 51.4242 7.13636 52.0549 6.86364 52.5739C6.59091 53.0928 6.20644 53.4867 5.71023 53.7557C5.21402 54.0246 4.62879 54.1591 3.95455 54.1591C3.31818 54.1591 2.75189 54.0436 2.25568 53.8125C1.75947 53.5777 1.36932 53.2443 1.08523 52.8125C0.801136 52.3807 0.659091 51.8674 0.659091 51.2727H2.04545C2.04545 51.6023 2.12689 51.8902 2.28977 52.1364C2.45644 52.3788 2.68371 52.5682 2.97159 52.7045C3.25947 52.8409 3.58712 52.9091 3.95455 52.9091C4.35985 52.9091 4.70455 52.8239 4.98864 52.6534C5.27273 52.483 5.48864 52.233 5.63636 51.9034C5.78788 51.5701 5.86364 51.1629 5.86364 50.6818V42.3636ZM15.4148 50.4318V45.2727H16.7557V54H15.4148V52.5227H15.3239C15.1193 52.9659 14.8011 53.3428 14.3693 53.6534C13.9375 53.9602 13.392 54.1136 12.733 54.1136C12.1875 54.1136 11.7027 53.9943 11.2784 53.7557C10.8542 53.5133 10.5208 53.1496 10.2784 52.6648C10.036 52.1761 9.91477 51.5606 9.91477 50.8182V45.2727H11.2557V50.7273C11.2557 51.3636 11.4337 51.8712 11.7898 52.25C12.1496 52.6288 12.608 52.8182 13.1648 52.8182C13.4981 52.8182 13.8371 52.733 14.1818 52.5625C14.5303 52.392 14.822 52.1307 15.0568 51.7784C15.2955 51.4261 15.4148 50.9773 15.4148 50.4318ZM20.5526 42.3636V54H19.2116V42.3636H20.5526ZM23.8722 57.2727C23.6449 57.2727 23.4422 57.2538 23.2642 57.2159C23.0862 57.1818 22.9631 57.1477 22.8949 57.1136L23.2358 55.9318C23.5616 56.0152 23.8494 56.0455 24.0994 56.0227C24.3494 56 24.571 55.8883 24.7642 55.6875C24.9612 55.4905 25.1411 55.1705 25.304 54.7273L25.554 54.0455L22.3267 45.2727H23.7812L26.1903 52.2273H26.2812L28.6903 45.2727H30.1449L26.4403 55.2727C26.2737 55.7235 26.0672 56.0966 25.821 56.392C25.5748 56.6913 25.2888 56.9129 24.9631 57.0568C24.6411 57.2008 24.2775 57.2727 23.8722 57.2727ZM40.483 42.3636V54H39.0739V43.8409H39.0057L36.1648 45.7273V44.2955L39.0739 42.3636H40.483ZM47.625 54.1591C46.7689 54.1591 46.0398 53.9261 45.4375 53.4602C44.8352 52.9905 44.375 52.3106 44.0568 51.4205C43.7386 50.5265 43.5795 49.447 43.5795 48.1818C43.5795 46.9242 43.7386 45.8504 44.0568 44.9602C44.3788 44.0663 44.8409 43.3845 45.4432 42.9148C46.0492 42.4413 46.7765 42.2045 47.625 42.2045C48.4735 42.2045 49.1989 42.4413 49.8011 42.9148C50.4072 43.3845 50.8693 44.0663 51.1875 44.9602C51.5095 45.8504 51.6705 46.9242 51.6705 48.1818C51.6705 49.447 51.5114 50.5265 51.1932 51.4205C50.875 52.3106 50.4148 52.9905 49.8125 53.4602C49.2102 53.9261 48.4811 54.1591 47.625 54.1591ZM47.625 52.9091C48.4735 52.9091 49.1326 52.5 49.6023 51.6818C50.072 50.8636 50.3068 49.697 50.3068 48.1818C50.3068 47.1742 50.1989 46.3163 49.983 45.608C49.7708 44.8996 49.464 44.3598 49.0625 43.9886C48.6648 43.6174 48.1856 43.4318 47.625 43.4318C46.7841 43.4318 46.1269 43.8466 45.6534 44.6761C45.1799 45.5019 44.9432 46.6705 44.9432 48.1818C44.9432 49.1894 45.0492 50.0455 45.2614 50.75C45.4735 51.4545 45.7784 51.9905 46.1761 52.358C46.5777 52.7254 47.0606 52.9091 47.625 52.9091ZM55.446 52.4091L55.3551 53.0227C55.2907 53.4545 55.1922 53.9167 55.0597 54.4091C54.9309 54.9015 54.7964 55.3655 54.6562 55.8011C54.5161 56.2367 54.4006 56.5833 54.3097 56.8409H53.2869C53.3362 56.5985 53.4006 56.2784 53.4801 55.8807C53.5597 55.483 53.6392 55.0379 53.7188 54.5455C53.8021 54.0568 53.8703 53.5568 53.9233 53.0455L53.9915 52.4091H55.446ZM62.4077 54V52.9773L66.2486 48.7727C66.6993 48.2803 67.0705 47.8523 67.3622 47.4886C67.6539 47.1212 67.8698 46.7765 68.0099 46.4545C68.1539 46.1288 68.2259 45.7879 68.2259 45.4318C68.2259 45.0227 68.1274 44.6686 67.9304 44.3693C67.7372 44.0701 67.4721 43.839 67.1349 43.6761C66.7978 43.5133 66.419 43.4318 65.9986 43.4318C65.5516 43.4318 65.1615 43.5246 64.8281 43.7102C64.4986 43.892 64.2429 44.1477 64.0611 44.4773C63.883 44.8068 63.794 45.1932 63.794 45.6364H62.4531C62.4531 44.9545 62.6103 44.3561 62.9247 43.8409C63.2391 43.3258 63.6671 42.9242 64.2088 42.6364C64.7543 42.3485 65.366 42.2045 66.044 42.2045C66.7259 42.2045 67.33 42.3485 67.8565 42.6364C68.383 42.9242 68.7959 43.3125 69.0952 43.8011C69.3944 44.2898 69.544 44.8333 69.544 45.4318C69.544 45.8598 69.4664 46.2784 69.3111 46.6875C69.1596 47.0928 68.8944 47.5455 68.5156 48.0455C68.1406 48.5417 67.6198 49.1477 66.9531 49.8636L64.3395 52.6591V52.75H69.7486V54H62.4077ZM75.8906 54.1591C75.0346 54.1591 74.3054 53.9261 73.7031 53.4602C73.1009 52.9905 72.6406 52.3106 72.3224 51.4205C72.0043 50.5265 71.8452 49.447 71.8452 48.1818C71.8452 46.9242 72.0043 45.8504 72.3224 44.9602C72.6444 44.0663 73.1065 43.3845 73.7088 42.9148C74.3149 42.4413 75.0421 42.2045 75.8906 42.2045C76.7391 42.2045 77.4645 42.4413 78.0668 42.9148C78.6728 43.3845 79.1349 44.0663 79.4531 44.9602C79.7751 45.8504 79.9361 46.9242 79.9361 48.1818C79.9361 49.447 79.777 50.5265 79.4588 51.4205C79.1406 52.3106 78.6804 52.9905 78.0781 53.4602C77.4759 53.9261 76.7467 54.1591 75.8906 54.1591ZM75.8906 52.9091C76.7391 52.9091 77.3982 52.5 77.8679 51.6818C78.3376 50.8636 78.5724 49.697 78.5724 48.1818C78.5724 47.1742 78.4645 46.3163 78.2486 45.608C78.0365 44.8996 77.7296 44.3598 77.3281 43.9886C76.9304 43.6174 76.4512 43.4318 75.8906 43.4318C75.0497 43.4318 74.3925 43.8466 73.919 44.6761C73.4455 45.5019 73.2088 46.6705 73.2088 48.1818C73.2088 49.1894 73.3149 50.0455 73.527 50.75C73.7391 51.4545 74.044 51.9905 74.4418 52.358C74.8433 52.7254 75.3262 52.9091 75.8906 52.9091ZM82.0952 54V52.9773L85.9361 48.7727C86.3868 48.2803 86.758 47.8523 87.0497 47.4886C87.3414 47.1212 87.5573 46.7765 87.6974 46.4545C87.8414 46.1288 87.9134 45.7879 87.9134 45.4318C87.9134 45.0227 87.8149 44.6686 87.6179 44.3693C87.4247 44.0701 87.1596 43.839 86.8224 43.6761C86.4853 43.5133 86.1065 43.4318 85.6861 43.4318C85.2391 43.4318 84.849 43.5246 84.5156 43.7102C84.1861 43.892 83.9304 44.1477 83.7486 44.4773C83.5705 44.8068 83.4815 45.1932 83.4815 45.6364H82.1406C82.1406 44.9545 82.2978 44.3561 82.6122 43.8409C82.9266 43.3258 83.3546 42.9242 83.8963 42.6364C84.4418 42.3485 85.0535 42.2045 85.7315 42.2045C86.4134 42.2045 87.0175 42.3485 87.544 42.6364C88.0705 42.9242 88.4834 43.3125 88.7827 43.8011C89.0819 44.2898 89.2315 44.8333 89.2315 45.4318C89.2315 45.8598 89.1539 46.2784 88.9986 46.6875C88.8471 47.0928 88.5819 47.5455 88.2031 48.0455C87.8281 48.5417 87.3073 49.1477 86.6406 49.8636L84.027 52.6591V52.75H89.4361V54H82.0952ZM91.2599 51.6136V50.4545L96.3736 42.3636H97.2145V44.1591H96.6463L92.7827 50.2727V50.3636H99.669V51.6136H91.2599ZM96.7372 54V51.2614V50.7216V42.3636H98.0781V54H96.7372Z" fill="#4A739C"/>
</svg>
